<?xml version="1.0" encoding="UTF-8" standalone="no"?>
<svg
   xmlns:dc="http://purl.org/dc/elements/1.1/"
   xmlns:cc="http://creativecommons.org/ns#"
   xmlns:rdf="http://www.w3.org/1999/02/22-rdf-syntax-ns#"
   xmlns:svg="http://www.w3.org/2000/svg"
   xmlns="http://www.w3.org/2000/svg"
   xmlns:sodipodi="http://sodipodi.sourceforge.net/DTD/sodipodi-0.dtd"
   xmlns:inkscape="http://www.inkscape.org/namespaces/inkscape"
   viewBox="0 0 336.95484 65.113656"
   height="65.113655"
   width="336.95483"
   xml:space="preserve"
   id="svg976"
   version="1.1"
   sodipodi:docname="syllabus.svg"
   inkscape:version="0.92.4 5da689c313, 2019-01-14"><sodipodi:namedview
     pagecolor="#ffffff"
     bordercolor="#666666"
     borderopacity="1"
     objecttolerance="10"
     gridtolerance="10"
     guidetolerance="10"
     inkscape:pageopacity="0"
     inkscape:pageshadow="2"
     inkscape:window-width="3806"
     inkscape:window-height="2126"
     id="namedview2154"
     showgrid="false"
     inkscape:zoom="1.5194915"
     inkscape:cx="24.679309"
     inkscape:cy="32.556828"
     inkscape:window-x="2172"
     inkscape:window-y="866"
     inkscape:window-maximized="0"
     inkscape:current-layer="svg976" /><metadata
     id="metadata982"><rdf:RDF><cc:Work
         rdf:about=""><dc:format>image/svg+xml</dc:format><dc:type
           rdf:resource="http://purl.org/dc/dcmitype/StillImage" /><dc:title /></cc:Work></rdf:RDF></metadata><defs
     id="defs980" /><g
     id="g986"
     transform="matrix(1.3333333,0,0,-1.3333333,158.5306,1034.6964)" /><g
     id="g1716"
     transform="matrix(1.3333333,0,0,-1.3333333,-138.8857,778.01663)"><path
       inkscape:connector-curvature="0"
       d="m 134.8576,578.7609 c 0.0171,-0.1197 0.0191,-0.2414 0.0152,-0.3621 v 0 c -0.0193,-0.6066 0.4569,-1.1141 1.0635,-1.1334 0.6067,-0.0193 1.1141,0.4568 1.1334,1.0635 0,0 0,0 0,0 0.006,0.2047 0.0169,0.4095 0.0375,0.6132 0.0129,0.1275 0.0236,0.2571 0.0702,0.3766 v 0 c 0.2925,0.7488 -0.0774,1.593 -0.8262,1.8855 -0.7488,0.2925 -1.5929,-0.0775 -1.8854,-0.8263 -0.2219,-0.5681 -0.0662,-1.2142 0.3902,-1.6188 l 0.002,0.002 z m 0.5912,-0.3434 c 0.0345,0.002 0.0721,0.006 0.1066,-2e-4 v 0 c 0.6097,-0.1134 1.2243,0.1719 1.5311,0.7107 0.3405,0.598 0.3908,1.325 0.1759,1.975 v 0 c -0.3549,1.0735 -1.5128,1.6559 -2.5862,1.301 -1.0734,-0.3549 -1.6559,-1.5128 -1.301,-2.5862 0.2923,-0.884 1.1444,-1.4594 2.0736,-1.4003 z m -0.5823,-0.0472 c 0.1938,0.0186 0.3879,0.0348 0.5822,0.0472 v 0 c 1.1282,0.0717 1.9848,1.0445 1.9131,2.1728 -0.0111,0.1744 -0.0445,0.3467 -0.0994,0.5127 -0.2463,0.745 -0.7899,1.368 -1.4755,1.7435 v 0 c -1.158,0.634 -2.6107,0.2094 -3.2447,-0.9486 -0.6341,-1.1579 -0.2094,-2.6106 0.9485,-3.2447 0.4199,-0.2299 0.8992,-0.3285 1.3758,-0.2829 z m -0.9239,-0.0711 c 0.3083,0.0195 0.6165,0.0417 0.924,0.0711 v 0 c 1.3142,0.1259 2.2775,1.2932 2.1517,2.6074 -0.0755,0.7885 -0.5367,1.4884 -1.2315,1.8688 -0.4747,0.2599 -0.9972,0.4238 -1.5274,0.5247 v 0 c -1.3895,0.2643 -2.7302,-0.6479 -2.9945,-2.0374 -0.2643,-1.3896 0.6479,-2.7303 2.0374,-2.9946 0.2109,-0.0401 0.426,-0.0536 0.6403,-0.04 z m -1.324,-0.0556 c 0.4414,0.0121 0.8831,0.0277 1.3239,0.0556 v 0 c 1.4116,0.0892 2.4836,1.3059 2.3944,2.7176 -0.0738,1.167 -0.9286,2.1358 -2.0774,2.3544 -0.5604,0.1066 -1.1334,0.139 -1.703,0.1412 v 0 c -1.4552,0.006 -2.6393,-1.1697 -2.6448,-2.6249 -0.006,-1.4552 1.1696,-2.6393 2.6248,-2.6448 0.0274,-10e-5 0.0547,2e-4 0.0821,9e-4 z m -0.7626,-0.0692 c 0.249,0.0525 0.509,0.0623 0.7625,0.0692 v 0 c 1.4547,0.0398 2.6017,1.2513 2.5619,2.7059 -0.0389,1.4228 -1.2006,2.5575 -2.6239,2.5629 -0.5868,0.002 -1.1772,-0.031 -1.754,-0.1436 v 0 c -1.4366,-0.2802 -2.3739,-1.672 -2.0937,-3.1085 0.2803,-1.4366 1.6721,-2.374 3.1086,-2.0937 0.0129,0.002 0.0257,0.005 0.0386,0.008 z m -1.1492,-0.3381 c 0.3775,0.125 0.7594,0.2561 1.1492,0.3381 v 0 c 1.4322,0.3016 2.3488,1.7071 2.0472,3.1393 -0.2984,1.4173 -1.6792,2.3324 -3.1007,2.0551 -0.5993,-0.1169 -1.1854,-0.302 -1.7642,-0.4937 v 0 c -1.3915,-0.4608 -2.1459,-1.9623 -1.6851,-3.3537 0.4607,-1.3914 1.9622,-2.1458 3.3536,-1.6851 0,0 0,0 0,0 z m -1.9703,-0.7703 c 0.6466,0.2807 1.3008,0.5486 1.9703,0.7703 v 0 c 1.3914,0.4607 2.1459,1.9622 1.6851,3.3536 -0.4607,1.3915 -1.9622,2.1459 -3.3536,1.6852 -0.82,-0.2715 -1.6223,-0.5957 -2.4146,-0.9392 v 0 c -1.3449,-0.5831 -1.9625,-2.1461 -1.3794,-3.491 0.5831,-1.3449 2.1461,-1.9625 3.491,-1.3794 4e-4,10e-5 8e-4,3e-4 0.001,5e-4 z m -2.5913,-1.2897 c 0.8461,0.4635 1.7061,0.9054 2.5913,1.2897 v 0 c 1.3446,0.5837 1.9615,2.147 1.3777,3.4917 -0.5835,1.3442 -2.146,1.9611 -3.4905,1.3782 -0.9721,-0.4214 -1.94,-0.8524 -2.906,-1.2877 v 0 c -1.3714,-0.6179 -1.9822,-2.2307 -1.3643,-3.6021 0.618,-1.3714 2.2307,-1.9823 3.6021,-1.3643 0.0644,0.029 0.1277,0.0605 0.1897,0.0945 z m -3.0197,-1.8096 c 0.9851,0.6381 1.9903,1.2457 3.0197,1.8096 v 0 c 1.3193,0.7227 1.8028,2.3781 1.0801,3.6973 -0.6833,1.2472 -2.2111,1.7588 -3.5076,1.1746 -1.1532,-0.5196 -2.2993,-1.0549 -3.4399,-1.6018 v 0 c -1.4529,-0.6967 -2.066,-2.4394 -1.3693,-3.8923 0.6968,-1.453 2.4394,-2.066 3.8924,-1.3693 0.1119,0.0537 0.2203,0.1144 0.3246,0.1819 z m -3.3352,-2.1589 c 1.1119,0.7194 2.2236,1.439 3.3351,2.1589 v 0 c 1.3525,0.876 1.7388,2.6825 0.8628,4.035 -0.7979,1.2319 -2.3868,1.6793 -3.7103,1.0447 -1.3084,-0.6273 -2.5748,-1.3414 -3.7929,-2.1294 v -10e-5 c -1.4109,-0.9127 -1.8146,-2.7963 -0.9019,-4.2072 0.9128,-1.4108 2.7964,-1.8146 4.2072,-0.9019 0,0 0,0 0,0 z m -2.9823,-2.0387 c 0.974,0.7084 1.9713,1.3846 2.9824,2.0388 v 0 c 1.4108,0.9127 1.8146,2.7964 0.9018,4.2072 -0.9128,1.4108 -2.7964,1.8146 -4.2072,0.9018 -1.133,-0.7329 -2.24,-1.5074 -3.3034,-2.3383 v 0 c -1.3109,-1.0243 -1.5431,-2.9173 -0.5188,-4.2282 0.9994,-1.279 2.8326,-1.536 4.1452,-0.5813 z m -2.1189,-1.7256 c 0.6624,0.6259 1.3825,1.19 2.1189,1.7256 v 10e-5 c 1.3454,0.9785 1.6427,2.8624 0.6642,4.2077 -0.9786,1.3453 -2.8624,1.6427 -4.2078,0.6641 -0.028,-0.0203 -0.0556,-0.0411 -0.0828,-0.0624 -0.9502,-0.7425 -1.8622,-1.5422 -2.6738,-2.4358 v 0 c -1.0878,-1.1979 -0.9986,-3.0509 0.1993,-4.1387 1.1336,-1.0296 2.869,-1.0124 3.982,0.0394 z m -0.98,-1.1084 c 0.2571,0.4174 0.6265,0.7743 0.98,1.1084 v 0 c 1.1761,1.1114 1.2286,2.9658 0.1172,4.1419 -1.1114,1.1761 -2.9657,1.2285 -4.1418,0.1171 -0.0543,-0.0512 -0.1065,-0.1045 -0.1567,-0.1597 -0.6565,-0.723 -1.2742,-1.4975 -1.7386,-2.36 v 0 c -0.7468,-1.3869 -0.2278,-3.1166 1.1591,-3.8634 1.3304,-0.7164 2.9886,-0.2709 3.7808,1.0157 z m 0.1723,0.3251 v 0 c 0.6465,1.4364 0.006,3.1249 -1.4304,3.7714 -1.3648,0.6142 -2.9722,0.069 -3.6818,-1.2488 -0.2732,-0.5074 -0.5371,-1.0225 -0.7519,-1.5578 v 0 c -0.6259,-1.56 0.1314,-3.332 1.6913,-3.9579 1.56,-0.6259 3.332,0.1313 3.9579,1.6913 0.1661,0.4138 0.2391,0.8591 0.2141,1.3043 l 8e-4,-0.002 z m -3.5644,-4.0905 v 0 c 1.628,-0.7697 3.5717,-0.0739 4.3414,1.5542 0.7532,1.5931 0.1043,3.4964 -1.4653,4.2976 l 0.002,-3e-4 c -1.0656,1.2999 -2.9832,1.4898 -4.2831,0.4242 -0.3964,-0.3249 -0.7043,-0.7447 -0.8952,-1.2205 -0.4425,-1.1031 -0.2988,-2.365 0.3303,-3.3661 0.4699,-0.7477 1.1763,-1.3142 1.9694,-1.6891 z m 1e-4,-1e-4 c 1.0513,-0.4969 2.2083,-0.7453 3.3541,-0.9051 v 0 c 1.7696,-0.2469 3.4043,0.9876 3.6512,2.7572 0.2412,1.7291 -0.933,3.3377 -2.6534,3.6349 -0.5198,0.0898 -1.083,0.1809 -1.5648,0.4087 v 0 c -1.628,0.7696 -3.5717,0.0738 -4.3414,-1.5543 -0.7696,-1.628 -0.0738,-3.5717 1.5543,-4.3413 0,0 0,0 0,0 z m 3.3541,-0.9051 c 1.2358,-0.1724 2.4815,-0.2704 3.7278,-0.3231 v 0 c 1.7527,-0.0741 3.2336,1.2866 3.3076,3.0392 0.0723,1.7085 -1.221,3.1675 -2.9257,3.3008 -1.0417,0.0815 -2.0819,0.1973 -3.1118,0.3752 v 0 c -1.7607,0.3043 -3.4346,-0.8764 -3.7389,-2.6371 -0.3042,-1.7606 0.8765,-3.4346 2.6372,-3.7388 0.0345,-0.006 0.0691,-0.0114 0.1038,-0.0162 z m 3.7279,-0.3231 c 1.27,-0.0537 2.5397,-0.113 3.8092,-0.1771 v 0 c 1.6989,-0.0858 3.1458,1.2219 3.2316,2.9209 0.082,1.6231 -1.1112,3.0307 -2.7258,3.2156 -1.3087,0.1499 -2.62,0.2779 -3.9332,0.3806 v 0 c -1.7489,0.1368 -3.2775,-1.1701 -3.4143,-2.9189 -0.1368,-1.7489 1.1701,-3.2775 2.919,-3.4143 0.0378,-0.003 0.0756,-0.005 0.1135,-0.007 z m 3.8092,-0.1771 c 1.2196,-0.0616 2.4353,-0.1964 3.6401,-0.3952 v 0 c 1.6123,-0.2659 3.1348,0.8254 3.4008,2.4377 0.2551,1.5467 -0.7405,3.0239 -2.2699,3.368 -1.4076,0.3167 -2.8316,0.5618 -4.2652,0.726 v 0 c -1.6901,0.1935 -3.2171,-1.0196 -3.4107,-2.7097 -0.1935,-1.6902 1.0196,-3.2172 2.7098,-3.4107 0.0648,-0.007 0.1299,-0.0128 0.1951,-0.0161 z m 3.6402,-0.3952 c 1.0674,-0.1761 2.1309,-0.4027 3.1618,-0.7342 v 0 c 1.4824,-0.4766 3.0705,0.3387 3.5471,1.8211 0.4441,1.3811 -0.2324,2.8737 -1.5636,3.4503 -1.2899,0.5586 -2.6445,0.9603 -4.0145,1.2685 v 0 c -1.5941,0.3586 -3.1772,-0.643 -3.5358,-2.2372 -0.3586,-1.5941 0.643,-3.1772 2.2372,-3.5358 0.0556,-0.0125 0.1115,-0.0234 0.1678,-0.0327 z m 3.1618,-0.7342 c 0.8375,-0.2693 1.6618,-0.5859 2.4502,-0.9773 v 0 c 1.2846,-0.6377 2.843,-0.1133 3.4808,1.1713 0.549,1.106 0.2434,2.4457 -0.731,3.2041 -0.9823,0.7645 -2.0757,1.3792 -3.2165,1.8733 h -1e-4 c -1.4289,0.6188 -3.0888,-0.038 -3.7076,-1.4669 -0.6188,-1.4289 0.0379,-3.0889 1.4668,-3.7077 0.0842,-0.0364 0.1701,-0.0687 0.2574,-0.0968 z m 2.4502,-0.9773 c 0.6484,-0.3218 1.2788,-0.6854 1.8609,-1.1169 v 0 c 0.9647,-0.7151 2.3264,-0.5127 3.0414,0.4519 0.4927,0.6646 0.5655,1.5511 0.1879,2.2871 -0.5555,1.0831 -1.3833,2.0083 -2.3404,2.7533 v 0 c -1.1318,0.8809 -2.7634,0.6775 -3.6444,-0.4543 -0.8809,-1.1318 -0.6775,-2.7634 0.4543,-3.6443 0.1371,-0.1068 0.2847,-0.1995 0.4403,-0.2768 z m 1.8609,-1.1169 c 0.3659,-0.2712 0.6976,-0.6031 0.9136,-1.0077 v 0 c 0.4521,-0.8467 1.5049,-1.1667 2.3517,-0.7146 0.6744,0.3601 1.0343,1.1186 0.8867,1.8687 -0.1779,0.904 -0.5027,1.774 -0.9227,2.5926 v 0 c -0.548,1.0684 -1.8584,1.4903 -2.9269,0.9422 -1.0684,-0.548 -1.4902,-1.8584 -0.9422,-2.9269 0.1525,-0.2972 0.3714,-0.5554 0.6398,-0.7543 z m 0.9136,-1.0077 c 0.1593,-0.2983 0.2317,-0.6423 0.1875,-0.9789 v 0 c -0.1239,-0.9437 0.5407,-1.8091 1.4844,-1.9329 0.9436,-0.1239 1.809,0.5407 1.9329,1.4843 0.0207,0.1578 0.0195,0.3177 -0.004,0.4751 -0.1037,0.705 -0.2251,1.4074 -0.3627,2.1065 v 0 c -0.1853,0.9418 -1.099,1.555 -2.0408,1.3697 -0.9418,-0.1853 -1.555,-1.099 -1.3697,-2.0408 0.0332,-0.1686 0.0912,-0.3314 0.1721,-0.483 z m 3.1992,-4.0337 c 0.3827,0.9759 0.5553,2.0387 0.4019,3.0813 v 0 c -0.1385,0.9417 -1.0141,1.5927 -1.9557,1.4542 -0.7624,-0.1121 -1.3576,-0.7167 -1.4579,-1.4807 -0.0599,-0.456 -0.2599,-0.8821 -0.5048,-1.2667 v 0 c -0.588,-0.9232 -0.3162,-2.1482 0.607,-2.7361 0.9232,-0.5879 2.1482,-0.3161 2.7361,0.6071 0.0687,0.1078 0.1268,0.222 0.1734,0.3409 z m -1.4486,-2.7001 c 0.5749,0.8462 1.0748,1.7468 1.4486,2.7002 v 0 c 0.3996,1.0189 -0.1025,2.1689 -1.1215,2.5684 -0.8823,0.346 -1.886,0.0189 -2.3951,-0.7804 -0.3309,-0.5197 -0.7803,-0.9565 -1.2683,-1.3283 v 0 c -1.0227,-0.7791 -1.2201,-2.2398 -0.441,-3.2625 0.7791,-1.0227 2.2397,-1.2201 3.2624,-0.441 0.1999,0.1522 0.3738,0.3358 0.5149,0.5436 z m -2.26,-2.6973 c 0.8301,0.8303 1.5998,1.7254 2.26,2.6973 v 0 c 0.7225,1.0635 0.446,2.5113 -0.6174,3.2338 -0.828,0.5624 -1.9227,0.5327 -2.7189,-0.0739 -0.7161,-0.5455 -1.4782,-1.0291 -2.2609,-1.4728 v 0 c -1.3358,-0.7573 -1.8048,-2.454 -1.0475,-3.7898 0.7572,-1.3357 2.4539,-1.8047 3.7897,-1.0475 0.2178,0.1235 0.418,0.2759 0.595,0.4529 z m -2.9124,-2.5857 c 1.0143,0.811 1.994,1.6672 2.9124,2.5857 v 0 c 1.0857,1.0859 1.0855,2.8463 -4e-4,3.9319 -0.884,0.8839 -2.2493,1.069 -3.3368,0.4525 -0.9271,-0.5255 -1.8938,-0.9796 -2.8774,-1.3886 v 0 c -1.67,-0.6943 -2.461,-2.611 -1.7666,-4.281 0.6943,-1.67 2.611,-2.4609 4.281,-1.7666 0.2831,0.1177 0.5483,0.2746 0.7878,0.4661 z m -3.5325,-2.567 c 1.2125,0.806 2.3953,1.6577 3.5325,2.567 v 0 c 1.4126,1.1295 1.6421,3.1902 0.5127,4.6028 -0.9115,1.1399 -2.4673,1.539 -3.815,0.9787 -1.1432,-0.4753 -2.313,-0.8857 -3.4965,-1.2486 v -10e-5 c -2.0366,-0.6246 -3.1813,-2.7819 -2.5567,-4.8186 0.6246,-2.0366 2.782,-3.1813 4.8186,-2.5567 0.356,0.1092 0.6943,0.2694 1.0044,0.4755 z m -4.4018,-2.4812 c 1.5209,0.7262 2.9979,1.5479 4.4018,2.4812 v 0 c 1.774,1.1793 2.2561,3.5735 1.0768,5.3475 -0.9448,1.4214 -2.7114,2.0528 -4.3431,1.5523 -1.4953,-0.4585 -2.9771,-0.9611 -4.4464,-1.4969 v 0 c -2.2209,-0.8099 -3.3648,-3.267 -2.5548,-5.4879 0.8099,-2.221 3.2669,-3.3648 5.4879,-2.5549 0.1284,0.0469 0.2545,0.0998 0.3778,0.1587 z m -4.5687,-2.0294 c 1.5405,0.6359 3.0647,1.3113 4.5687,2.0294 v 0 c 2.1333,1.0186 3.037,3.5737 2.0184,5.7071 -0.9503,1.9902 -3.2573,2.9326 -5.3293,2.177 -1.4471,-0.5278 -2.9034,-1.0307 -4.3669,-1.5113 v 0 c -2.3521,-0.7723 -3.6327,-3.3052 -2.8604,-5.6573 0.7724,-2.3521 3.3052,-3.6328 5.6574,-2.8604 0.1054,0.0346 0.2095,0.0731 0.3121,0.1155 z m -4.4066,-1.6012 c 1.4969,0.451 2.9621,1.0048 4.4066,1.6012 v 0 c 2.2883,0.9447 3.3775,3.5657 2.4328,5.854 -0.8955,2.169 -3.3123,3.2803 -5.5419,2.5482 -1.3074,-0.4293 -2.6179,-0.8497 -3.9355,-1.2466 v 0 c -2.4181,-0.7284 -3.7879,-3.2792 -3.0594,-5.6973 0.7285,-2.4182 3.2792,-3.7879 5.6974,-3.0595 z m -4.1998,-0.6925 c 1.4248,-0.0333 2.8431,0.2838 4.1998,0.6925 v 0 c 2.4181,0.7285 3.7878,3.2793 3.0594,5.6974 -0.7285,2.4181 -3.2793,3.7879 -5.6974,3.0594 0,0 0,0 0,0 -0.8362,-0.2519 -1.6746,-0.5019 -2.5226,-0.7116 v 0 c -2.3774,-0.5878 -3.8281,-2.9916 -3.2403,-5.369 0.4802,-1.942 2.2012,-3.322 4.2011,-3.3687 z m -2.557,0.8285 v 0 c 0.1894,-0.1311 0.3889,-0.247 0.5965,-0.3468 l -0.001,-0.003 c 0.2068,-0.1016 0.4213,-0.1869 0.6414,-0.2549 0.4553,-0.1408 0.844,-0.213 1.3204,-0.2241 v 0 c 2.4484,-0.0571 4.4794,1.8813 4.5366,4.3296 0.0571,2.4483 -1.8813,4.4794 -4.3296,4.5365 -0.0438,10e-4 -0.0877,10e-4 -0.1315,10e-4 -0.2049,0.1163 -0.4045,0.2446 -0.6004,0.379 v -1e-4 c -0.4326,0.2968 -1.0115,0.2622 -1.4057,-0.084 -0.5517,-0.4845 -1.0969,-0.9896 -1.5478,-1.5717 -0.4332,-0.5591 -0.7628,-1.1951 -0.932,-1.8842 -0.4498,-1.8317 0.2979,-3.8015 1.8534,-4.8777 z"
       style="fill:#000000;fill-opacity:1;fill-rule:nonzero;stroke:none"
       id="path1016" /><path
       inkscape:connector-curvature="0"
       d="m 175.6017,574.0004 v 0 c 0,-1.1885 0.9634,-2.1519 2.1519,-2.1519 1.1884,0 2.1518,0.9634 2.1518,2.1519 v 0 c 0,1.1884 -0.9634,2.1519 -2.1518,2.1519 -1.1885,0 -2.1519,-0.9635 -2.1519,-2.1519 0,0 0,0 0,0 z m 4.6929,0.045 c -0.1099,1.0351 -0.7702,1.9698 -1.7887,2.2977 v 0 c -0.5063,0.163 -1.0515,0.1596 -1.5558,-0.01 -0.7745,-0.2601 -1.3703,-0.8916 -1.6209,-1.6603 -0.086,-0.2638 -0.1317,-0.5399 -0.1405,-0.8171 v 0 c -0.0447,-1.4135 1.065,-2.5957 2.4785,-2.6403 1.4136,-0.0447 2.5957,1.065 2.6404,2.4785 0.004,0.1172 -7e-4,0.2346 -0.0131,0.3512 h 1e-4 z m -0.253,-2.0088 c 0.1959,0.6479 0.325,1.3302 0.253,2.0087 v 0 c -0.1493,1.4064 -1.4103,2.4254 -2.8167,2.2762 -1.2716,-0.1349 -2.2487,-1.1873 -2.2892,-2.4654 8e-4,0.0263 -0.0141,-0.0927 -0.0177,-0.1138 -0.0218,-0.128 -0.0495,-0.2552 -0.079,-0.3816 v 0 c -0.3215,-1.3786 0.5354,-2.7568 1.914,-3.0783 1.3161,-0.307 2.6444,0.4607 3.0356,1.7542 z m -0.6758,-1.9086 c 0.243,0.6293 0.4804,1.2626 0.6758,1.9086 v 0 c 0.4097,1.355 -0.3565,2.7856 -1.7115,3.1954 -1.355,0.4097 -2.7856,-0.3565 -3.1954,-1.7115 -0.0159,-0.0528 -0.0302,-0.1061 -0.0427,-0.1598 -0.1115,-0.4782 -0.2914,-0.9432 -0.4682,-1.4001 v 0 c -0.5064,-1.3093 0.1445,-2.7813 1.4538,-3.2877 1.3093,-0.5064 2.7813,0.1444 3.2877,1.4537 2e-4,5e-4 4e-4,9e-4 5e-4,10e-4 z m -1.031,-2.56 c 0.3531,0.8495 0.6997,1.7018 1.031,2.56 v 0 c 0.5057,1.3096 -0.146,2.7812 -1.4556,3.2869 -1.3091,0.5055 -2.7802,-0.1455 -3.2864,-1.4543 -0.3165,-0.8183 -0.6473,-1.6311 -0.9841,-2.4412 v 0 c -0.5388,-1.2965 0.0754,-2.7844 1.3719,-3.3233 1.2965,-0.5388 2.7844,0.0754 3.3232,1.3719 z m -2.1321,-5.3214 c 0.7025,1.7768 1.3988,3.5569 2.1321,5.3213 v 0 c 0.5389,1.2965 -0.0753,2.7844 -1.3718,3.3233 -1.2965,0.5389 -2.7844,-0.0753 -3.3232,-1.3718 0,0 0,0 -1e-4,0 -0.7413,-1.7837 -1.4675,-3.5738 -2.1962,-5.3627 v 0 c -0.5343,-1.3115 0.0958,-2.8078 1.4073,-3.342 1.3115,-0.5343 2.8078,0.0958 3.3421,1.4073 0.003,0.008 0.007,0.0164 0.01,0.0246 z m -2.3919,-6.1844 c 0.7702,2.0717 1.5793,4.1291 2.3919,6.1844 v 0 c 0.5207,1.3169 -0.1248,2.8066 -1.4418,3.3273 -1.3073,0.5169 -2.7871,-0.1152 -3.3174,-1.4172 -0.8184,-2.0089 -1.6499,-4.0187 -2.5985,-5.9704 v 0 c -0.6528,-1.3429 -0.0932,-2.9608 1.2497,-3.6135 1.343,-0.6528 2.9608,-0.0932 3.6136,1.2497 0.038,0.0782 0.0722,0.1582 0.1025,0.2397 z m -1.7724,-4.5011 c 0.6212,1.4882 1.2104,2.9896 1.7724,4.5011 v 0 c 0.5204,1.3996 -0.1924,2.956 -1.5919,3.4764 -1.3051,0.4852 -2.7652,-0.1 -3.3739,-1.3523 -0.712,-1.4649 -1.3861,-2.9485 -2.0136,-4.4516 v 0 c -0.6002,-1.4379 0.0789,-3.0901 1.5167,-3.6903 1.4379,-0.6002 3.0901,0.0789 3.6903,1.5167 z m -1.6604,-3.8392 c 0.5739,1.2707 1.1233,2.5525 1.6604,3.8392 v 0 c 0.6002,1.4379 -0.0788,3.0901 -1.5167,3.6903 -1.4378,0.6002 -3.09,-0.0788 -3.6903,-1.5167 -0.5885,-1.4098 -1.0939,-2.8614 -1.4271,-4.354 v 0 c -0.317,-1.4205 0.5775,-2.829 1.9979,-3.1461 1.2191,-0.272 2.4617,0.349 2.9758,1.4873 z m -1.0497,-2.6559 c 0.2898,0.9071 0.658,1.7887 1.0497,2.6559 v 0 c 0.5991,1.3264 0.01,2.8873 -1.3169,3.4864 -1.3264,0.5991 -2.8874,0.01 -3.4864,-1.3169 -0.0741,-0.164 -0.1312,-0.3351 -0.1704,-0.5107 -0.2588,-1.1596 -0.4571,-2.34 -0.5069,-3.5288 v 0 c -0.0524,-1.2527 0.9207,-2.3108 2.1734,-2.3632 1.0219,-0.0428 1.9462,0.6031 2.2575,1.5773 z m -4.2931,-1.9116 v 0 c 0.1844,-1.0342 1.1722,-1.723 2.2063,-1.5386 0.7507,0.1338 1.3489,0.703 1.5198,1.4461 0.1556,0.6767 0.3558,1.343 0.567,2.0041 v 0 c 0.3816,1.1944 -0.2773,2.472 -1.4716,2.8536 -1.1944,0.3816 -2.472,-0.2773 -2.8536,-1.4717 -0.0616,-0.193 -0.0972,-0.3935 -0.1057,-0.596 -0.0376,-0.899 -0.0205,-1.8097 0.1378,-2.6975 z m 0,-10e-5 c 0.1193,-0.6693 0.2959,-1.3343 0.5868,-1.951 v 0 c 0.4104,-0.8696 1.4479,-1.2418 2.3175,-0.8315 0.8439,0.3982 1.2238,1.391 0.8613,2.2509 -0.0539,0.1279 -0.0786,0.1296 -0.0711,0.2393 0.005,0.0674 0.0165,0.1342 0.0316,0.2 v 0 c 0.2354,1.0237 -0.4036,2.0445 -1.4273,2.2799 -1.0238,0.2354 -2.0445,-0.4036 -2.28,-1.4274 -0.0574,-0.2495 -0.0638,-0.5081 -0.0188,-0.7602 z m 0.5868,-1.9509 c 0.3568,-0.7562 0.9594,-1.3701 1.7136,-1.7327 v 0 c 0.8945,-0.4301 1.9683,-0.0537 2.3984,0.8408 0.4301,0.8945 0.0537,1.9684 -0.8408,2.3985 -0.0459,0.0221 -0.0927,0.0422 -0.1403,0.0603 -0.0263,0.01 -0.0351,0.0231 -0.0495,0.0481 v 0 c -0.4817,0.8322 -1.5468,1.1164 -2.379,0.6347 -0.7833,-0.4533 -1.0886,-1.4312 -0.7024,-2.2497 z m 1.7136,-1.7327 c 0.6588,-0.3168 1.3851,-0.4695 2.1116,-0.5166 v 0 c 1.0218,-0.0662 1.9038,0.7085 1.97,1.7303 0.0662,1.0217 -0.7084,1.9037 -1.7302,1.9699 -0.042,0.003 -0.084,0.004 -0.126,0.004 -0.269,-9e-4 -0.554,0.0154 -0.8081,0.112 v 10e-5 c -0.9278,0.3526 -1.9658,-0.1137 -2.3185,-1.0415 -0.3316,-0.8725 0.0599,-1.8536 0.9012,-2.2581 z m 2.1117,-0.5166 c 0.8235,-0.0533 1.6506,0.0591 2.4447,0.2762 v 0 c 1.0261,0.2806 1.6304,1.3398 1.3499,2.3658 -0.2805,1.0261 -1.3397,1.6304 -2.3658,1.3499 -0.0526,-0.0144 -0.1046,-0.031 -0.1558,-0.0498 -0.3702,-0.1359 -0.7628,-0.2367 -1.1594,-0.238 v 0 c -1.0239,-0.003 -1.8512,-0.8362 -1.8478,-1.8601 0.003,-0.9751 0.7612,-1.781 1.7342,-1.844 z m 2.4447,0.2762 c 0.7964,0.2178 1.5759,0.4951 2.3404,0.8061 v 0 c 1.0248,0.417 1.5176,1.5858 1.1006,2.6106 -0.417,1.0249 -1.5858,1.5176 -2.6106,1.1007 -0.0343,-0.014 -0.0683,-0.0289 -0.1018,-0.0448 -0.622,-0.2943 -1.2541,-0.5695 -1.9003,-0.8067 v 0 c -0.9986,-0.3666 -1.5109,-1.4733 -1.1443,-2.4718 0.3448,-0.9391 1.3511,-1.4579 2.316,-1.1941 z m 2.3404,0.8061 c 0.8152,0.3317 1.6427,0.6328 2.475,0.9185 v 0 c 1.101,0.3779 1.6871,1.5768 1.3092,2.6778 -0.3779,1.1009 -1.5767,1.6871 -2.6777,1.3092 -0.0611,-0.021 -0.1212,-0.0447 -0.1801,-0.0712 -0.8494,-0.382 -1.6963,-0.7695 -2.5382,-1.1678 v 0 c -1.0001,-0.4732 -1.4273,-1.6675 -0.9541,-2.6676 0.4547,-0.9611 1.581,-1.3995 2.5659,-0.9989 z m 2.475,0.9185 c 0.8315,0.2854 1.6853,0.507 2.5524,0.6532 v 0 c 1.3034,0.2197 2.182,1.4544 1.9623,2.7578 -0.2197,1.3035 -1.4545,2.182 -2.7579,1.9623 -0.229,-0.0386 -0.451,-0.1102 -0.6593,-0.2128 -0.8746,-0.4305 -1.7571,-0.8449 -2.6461,-1.2447 v 0 c -1.0617,-0.4774 -1.5353,-1.725 -1.0579,-2.7866 0.4466,-0.9933 1.5764,-1.4827 2.6065,-1.1292 z m 2.5524,0.6532 c 0.8253,0.1391 1.6525,0.2686 2.4826,0.3757 v 0 c 1.4845,0.1914 2.5327,1.55 2.3412,3.0345 -0.1914,1.4845 -1.55,2.5327 -3.0345,2.3412 -0.159,-0.0205 -0.3159,-0.0551 -0.4688,-0.1033 -0.9548,-0.3013 -1.8779,-0.6989 -2.7754,-1.1408 v 0 c -1.1859,-0.5838 -1.674,-2.0185 -1.0902,-3.2044 0.4672,-0.949 1.502,-1.4788 2.5451,-1.3029 z m 2.4826,0.3757 c 0.6726,0.0867 1.3467,0.1616 2.0224,0.2194 v 0 c 1.5471,0.1322 2.694,1.4936 2.5618,3.0407 -0.1323,1.547 -1.4936,2.694 -3.0407,2.5617 -0.9191,-0.0785 -1.8265,-0.2721 -2.7056,-0.5494 v 0 c -1.4274,-0.4504 -2.2195,-1.9726 -1.7691,-3.4 0.3949,-1.2515 1.6297,-2.0403 2.9312,-1.8724 z m 2.0224,0.2194 c 0.6177,0.0528 1.2265,0.1942 1.8218,0.3628 0.6612,0.1872 1.3109,0.4137 1.9532,0.6575 v 0 c 0.5778,0.2194 0.8683,0.8656 0.6489,1.4433 -0.031,0.0818 -0.0715,0.1596 -0.1207,0.2319 -0.4605,0.6774 -0.996,1.3128 -1.6364,1.8273 -0.8841,0.7102 -1.9948,1.178 -3.1457,1.0796 v 0 c -1.5471,-0.1322 -2.694,-1.4936 -2.5618,-3.0406 0.1323,-1.5471 1.4936,-2.6941 3.0407,-2.5618 0,0 0,0 0,0 z"
       style="fill:#000000;fill-opacity:1;fill-rule:nonzero;stroke:none"
       id="path1018" /><path
       inkscape:connector-curvature="0"
       d="m 203.9852,573.1397 c 0.0195,-0.1487 0.0163,-0.3001 0.005,-0.4493 v 0 c -0.0476,-0.6051 0.4044,-1.1342 1.0094,-1.1818 0.6051,-0.0476 1.1342,0.4044 1.1818,1.0095 0,0 0,0 0,0 0.009,0.1174 0.0266,0.2337 0.0571,0.3476 l 0.001,-10e-4 c 0.6878,0.5484 0.8007,1.5506 0.2523,2.2383 -0.5485,0.6878 -1.5506,0.8007 -2.2384,0.2522 -0.6793,-0.5417 -0.7991,-1.5278 -0.2693,-2.2165 l 0.002,10e-4 z m 3.2958,0.071 c 0.0468,0.2563 0.0794,0.5158 0.0833,0.7765 0.009,0.6182 -0.1666,1.2321 -0.5886,1.701 h -1e-4 c -0.233,0.2589 -0.5252,0.4576 -0.8517,0.579 -0.7551,0.281 -1.5754,0.1054 -2.2174,-0.346 -0.2665,-0.1874 -0.502,-0.4155 -0.7142,-0.662 v 0 c -0.8874,-1.0306 -0.7713,-2.5855 0.2593,-3.4729 1.0306,-0.8874 2.5855,-0.7713 3.4729,0.2593 0.2859,0.332 0.478,0.7342 0.5565,1.1651 z m -0.6846,-2.563 c 0.2927,0.8351 0.5259,1.6921 0.6846,2.563 v 0 c 0.244,1.338 -0.6429,2.6204 -1.9809,2.8643 -0.8595,0.1568 -1.7377,-0.1537 -2.3078,-0.8158 -0.6531,-0.7584 -1.1872,-1.617 -1.5992,-2.5283 v 0 c -0.6383,-1.4117 -0.0113,-3.0735 1.4004,-3.7117 1.4117,-0.6382 3.0734,-0.0112 3.7117,1.4004 0.0337,0.0747 0.0642,0.1508 0.0912,0.2281 z m -1.8804,-5.9864 c 0.4097,1.3363 0.8206,2.6723 1.2398,4.0058 0.208,0.6616 0.4113,1.3259 0.6407,1.9806 v 0 c 0.5122,1.4621 -0.2577,3.0626 -1.7198,3.5749 -1.3724,0.4808 -2.8846,-0.1668 -3.4837,-1.4918 -0.3166,-0.7002 -0.595,-1.4186 -0.8782,-2.1327 -0.5215,-1.3153 -1.0313,-2.6354 -1.5392,-3.956 v 0 c -0.6022,-1.5661 0.1791,-3.3239 1.7453,-3.9262 1.5661,-0.6022 3.3238,0.1792 3.9261,1.7453 0.0253,0.0659 0.0483,0.1326 0.069,0.2001 z m -2.2589,-7.2108 c 0.7869,2.3926 1.5208,4.8029 2.2589,7.2108 v 0 c 0.4918,1.6042 -0.4101,3.3033 -2.0143,3.7951 -1.5258,0.4676 -3.1533,-0.3248 -3.7261,-1.8143 -0.8929,-2.3222 -1.784,-4.6453 -2.6966,-6.9598 v 0 c -0.6656,-1.6883 0.1634,-3.5964 1.8516,-4.262 1.6882,-0.6656 3.5964,0.1633 4.262,1.8516 0.0232,0.0589 0.0448,0.1185 0.0645,0.1786 z m -2.1384,-5.9305 c 0.7454,1.9642 1.482,3.9344 2.1385,5.9306 v 0 c 0.5669,1.7238 -0.371,3.5809 -2.0949,4.1478 -1.6538,0.5439 -3.4447,-0.2966 -4.0833,-1.9161 -0.7502,-1.9029 -1.5101,-3.8019 -2.271,-5.7005 v 0 c -0.6958,-1.7364 0.1477,-3.7081 1.884,-4.404 1.7364,-0.6958 3.7081,0.1477 4.4039,1.884 0.008,0.0194 0.0154,0.0388 0.0227,0.0582 z m -2.2453,-5.2923 c 0.3753,0.6883 0.6884,1.4109 0.9925,2.1327 0.44,1.0441 0.8508,2.1004 1.2527,3.1596 v 0 c 0.6638,1.7489 -0.2159,3.7047 -1.9648,4.3684 -1.7262,0.6551 -3.6589,-0.1929 -4.3457,-1.9066 -0.4316,-1.0768 -0.8485,-2.1608 -1.2143,-3.2618 -0.2694,-0.8107 -0.5236,-1.6375 -0.6546,-2.4836 v 0 c -0.2687,-1.7355 0.9204,-3.3602 2.6559,-3.6289 1.3251,-0.2052 2.6365,0.4429 3.2783,1.6202 z m -0.972,-1.9765 c 0.2873,0.6759 0.6206,1.3319 0.972,1.9765 v 0 c 0.8407,1.5418 0.2723,3.4733 -1.2696,4.314 -1.5419,0.8407 -3.4733,0.2723 -4.314,-1.2696 -0.1758,-0.3224 -0.2944,-0.6728 -0.3506,-1.0357 -0.1402,-0.9053 -0.2534,-1.8158 -0.3131,-2.7302 v 0 c -0.0989,-1.5157 1.0495,-2.8245 2.5651,-2.9235 1.1661,-0.0762 2.253,0.593 2.7102,1.6685 z m -0.2736,-0.8741 c 0.0183,0.2967 0.1595,0.6056 0.2736,0.8741 v 0 c 0.5941,1.3978 -0.0574,3.0126 -1.4552,3.6067 -1.3979,0.5942 -3.0127,-0.0574 -3.6068,-1.4552 -0.121,-0.2847 -0.1931,-0.5878 -0.2133,-0.8966 -0.0404,-0.6193 -0.0784,-1.2387 -0.106,-1.8587 v 0 c -0.0628,-1.4111 1.0302,-2.6059 2.4413,-2.6687 1.3944,-0.0621 2.581,1.0053 2.6664,2.3984 z m -4.8866,-1.7705 v 0 c 0.4181,-1.3704 1.868,-2.1424 3.2384,-1.7243 1.3704,0.4181 2.1424,1.868 1.7243,3.2384 -0.0118,0.0386 -0.0245,0.077 -0.0381,0.115 -0.1182,0.3314 -0.0494,0.1234 -0.0392,0.0433 -0.004,0.0306 -7e-4,0.0664 10e-4,0.098 v 0 c 0.0866,1.4098 -0.9862,2.6229 -2.396,2.7094 -1.4098,0.0866 -2.6229,-0.9862 -2.7094,-2.396 -9e-4,-0.0143 -0.002,-0.0286 -0.002,-0.0429 -0.0305,-0.686 0.02,-1.3815 0.2211,-2.0409 z m 0,-10e-5 c 0.3518,-1.1528 1.2768,-2.0187 2.4077,-2.3971 h 1e-4 c 1.3859,-0.4638 2.8854,0.2839 3.3491,1.6698 0.4207,1.2575 -0.1543,2.6323 -1.345,3.2159 l 0.002,-6e-4 c -0.956,1.0673 -2.5961,1.1575 -3.6633,0.2016 -0.7524,-0.674 -1.0453,-1.7234 -0.7505,-2.6896 z m 2.4077,-2.3971 c 0.7665,-0.2565 1.5835,-0.3282 2.3877,-0.3139 v 0 c 1.4748,0.0263 2.6491,1.2431 2.6228,2.7179 -0.0262,1.4748 -1.243,2.6491 -2.7179,2.6229 -0.0295,-5e-4 -0.0591,-0.002 -0.0887,-0.003 -0.1819,-0.009 -0.44,-0.0291 -0.6013,0.0195 v 0 c -1.3995,0.4214 -2.8755,-0.3716 -3.2968,-1.771 -0.4123,-1.3694 0.338,-2.8186 1.6942,-3.2723 z m 2.3877,-0.3139 c 0.9724,0.0173 1.9348,0.2182 2.8621,0.502 v 0 c 1.4383,0.44 2.2475,1.9627 1.8075,3.401 -0.4401,1.4383 -1.9628,2.2476 -3.4011,1.8075 -0.0515,-0.0157 -0.1025,-0.033 -0.153,-0.0518 -0.4135,-0.1539 -0.8549,-0.2983 -1.2993,-0.321 v 0 c -1.4731,-0.0752 -2.6063,-1.3304 -2.531,-2.8035 0.0734,-1.4387 1.2745,-2.5598 2.7148,-2.5342 z m 2.8621,0.502 c 0.8567,0.2621 1.7096,0.5363 2.5593,0.82 v 0 c 1.4801,0.4943 2.2793,2.0948 1.7851,3.5749 -0.4943,1.4801 -2.0948,2.2793 -3.575,1.7851 -0.085,-0.0284 -0.1686,-0.0608 -0.2505,-0.0972 -0.7459,-0.3308 -1.5008,-0.6416 -2.2655,-0.9261 v 0 c -1.4097,-0.5246 -2.1272,-2.0926 -1.6027,-3.5023 0.5027,-1.3509 1.971,-2.0762 3.3493,-1.6544 z m 2.5593,0.82 c 0.8882,0.2966 1.7819,0.5762 2.6791,0.8444 v 0 c 1.5339,0.4585 2.4056,2.0736 1.9471,3.6075 -0.4585,1.5339 -2.0736,2.4056 -3.6075,1.9471 -0.0103,-0.003 -0.0206,-0.006 -0.0309,-0.009 -1.0288,-0.3201 -2.0431,-0.6899 -3.0282,-1.1268 v 0 c -1.4265,-0.6326 -2.07,-2.3018 -1.4374,-3.7283 0.5905,-1.3314 2.0963,-1.9958 3.4778,-1.5345 z m 2.6791,0.8444 c 0.7444,0.2225 1.5028,0.4104 2.2734,0.5159 v 0 c 1.5908,0.2178 2.7038,1.684 2.486,3.2748 -0.2178,1.5908 -1.684,2.7039 -3.2748,2.4861 -1.0777,-0.1476 -2.1381,-0.4087 -3.1759,-0.7316 v 0 c -1.5286,-0.4756 -2.3823,-2.1003 -1.9068,-3.629 0.4718,-1.5166 2.0763,-2.3711 3.5981,-1.9162 z m 2.2734,0.5159 c 0.659,0.0902 1.3215,0.1628 1.986,0.1966 v 0 c 1.593,0.0811 2.8186,1.4381 2.7375,3.0311 -0.0788,1.5498 -1.3683,2.7602 -2.92,2.7411 -0.8674,-0.0108 -1.7333,-0.0903 -2.5924,-0.208 v 0 c -1.5908,-0.2178 -2.7038,-1.684 -2.486,-3.2748 0.2179,-1.5909 1.6841,-2.7039 3.2749,-2.486 z m 1.986,0.1966 c 0.5502,0.028 1.101,0.047 1.652,0.0466 v 0 c 1.5229,-10e-4 2.7583,1.2327 2.7594,2.7556 8e-4,1.2331 -0.8172,2.3169 -2.0033,2.6542 -0.8403,0.239 -1.7188,0.3265 -2.5906,0.3158 v 0 c -1.5949,-0.0198 -2.8718,-1.3287 -2.8521,-2.9236 0.0197,-1.5949 1.3286,-2.8718 2.9235,-2.8521 0.0371,4e-4 0.0741,0.002 0.1111,0.004 z m 1.652,0.0466 c 0.8844,-6e-4 1.7686,0.1452 2.6316,0.3274 v 0 c 0.5049,0.1065 0.8618,0.5582 0.8488,1.074 -0.0158,0.6273 -0.1302,1.255 -0.3733,1.8353 -0.4284,1.0229 -1.2695,1.8656 -2.351,2.1732 v 0 c -1.4649,0.4165 -2.9901,-0.4334 -3.4066,-1.8982 -0.4165,-1.4649 0.4333,-2.99 1.8982,-3.4066 0.2447,-0.0696 0.4979,-0.1049 0.7523,-0.1051 z"
       style="fill:#000000;fill-opacity:1;fill-rule:nonzero;stroke:none"
       id="path1020" /><path
       inkscape:connector-curvature="0"
       d="m 240.6277,569.0343 v 0 c 0.3799,-0.2929 0.906,-0.3056 1.2995,-0.0312 0.0409,0.0285 0.0819,0.0568 0.1231,0.0849 l 0.001,-0.003 c 0.3194,0.1454 0.5916,0.3775 0.7857,0.6699 l 0.1036,0.1758 c 0.1871,0.3609 0.2515,0.7729 0.1836,1.1737 l -0.2416,0.6531 c -0.5331,0.8883 -1.6854,1.1762 -2.5737,0.6431 -0.8882,-0.5331 -1.1762,-1.6853 -0.6431,-2.5736 0.2202,-0.3668 0.5591,-0.6474 0.9606,-0.7951 l 8e-4,0.003 z m 1.9093,0.3015 c 0.1016,0.1383 0.2056,0.2758 0.3006,0.4189 v 0 c 0.4,0.6027 0.4178,1.3817 0.0457,2.002 -0.3881,0.6472 -1.1235,0.9963 -1.8662,0.9645 -0.3582,-0.0154 -0.7079,-0.114 -1.0321,-0.2642 v 0 c -1.0431,-0.4831 -1.497,-1.7204 -1.0139,-2.7634 0.4831,-1.0431 1.7204,-1.497 2.7634,-1.0139 0.3185,0.1475 0.5946,0.3732 0.8024,0.6561 z m -0.5577,-0.794 c 0.1831,0.2665 0.3661,0.5334 0.5576,0.794 v 0 c 0.6808,0.9263 0.4817,2.229 -0.4446,2.9097 -0.6114,0.4493 -1.4188,0.5304 -2.1073,0.2115 -0.4983,-0.2308 -0.9388,-0.575 -1.3507,-0.934 v 0 c -0.9402,-0.8194 -1.0381,-2.2459 -0.2186,-3.1861 0.8195,-0.9402 2.2459,-1.0381 3.1861,-0.2186 0.1432,0.1247 0.27,0.267 0.3775,0.4235 z m -0.9604,-1.4419 c 0.3158,0.4834 0.6334,0.9659 0.9604,1.4419 v 0 c 0.7063,1.0279 0.4456,2.4338 -0.5824,3.1401 -0.8492,0.5835 -1.9858,0.5182 -2.7626,-0.1589 -0.5616,-0.4895 -1.049,-1.0621 -1.5051,-1.6492 v 0 c -0.8099,-1.0428 -0.6212,-2.5447 0.4216,-3.3547 1.0427,-0.8099 2.5446,-0.6212 3.3546,0.4215 0.04,0.0515 0.0779,0.1047 0.1135,0.1593 z m -1.2619,-2.0241 c 0.4095,0.6816 0.8271,1.3583 1.2619,2.0241 v 0 c 0.7221,1.1054 0.4112,2.5869 -0.6942,3.3089 -1.0421,0.6806 -2.432,0.4479 -3.1955,-0.5351 -0.5549,-0.7144 -1.0636,-1.4645 -1.5458,-2.2296 v 0 c -0.7216,-1.1449 -0.3784,-2.658 0.7664,-3.3796 1.1449,-0.7216 2.658,-0.3785 3.3796,0.7664 0.009,0.0149 0.0186,0.0298 0.0276,0.0449 z m -2.4251,-4.4755 c 0.4935,0.9449 0.99,1.8882 1.4983,2.8253 0.3006,0.5543 0.6021,1.1094 0.9268,1.6502 v 0 c 0.6969,1.1601 0.3213,2.6655 -0.8388,3.3623 -1.1426,0.6863 -2.6241,0.3335 -3.3348,-0.794 -0.9216,-1.4622 -1.8818,-2.9005 -2.8346,-4.3424 v 10e-5 c -0.8111,-1.2273 -0.4737,-2.8797 0.7536,-3.6907 1.2273,-0.8111 2.8796,-0.4737 3.6907,0.7536 0.0503,0.0761 0.0966,0.1547 0.1388,0.2356 z m -2.9787,-5.4736 c 1.0455,1.7948 2.0174,3.6327 2.9787,5.4736 v 0 c 0.681,1.3039 0.1759,2.913 -1.128,3.5939 -1.2102,0.632 -2.7024,0.2466 -3.4551,-0.8924 -1.1091,-1.6783 -2.2224,-3.3547 -3.3695,-5.0074 v 0 c -0.9292,-1.3388 -0.5971,-3.1774 0.7417,-4.1066 1.3389,-0.9292 3.1774,-0.5971 4.1066,0.7417 0.0445,0.0641 0.0863,0.1298 0.1256,0.1972 z m -2.3951,-3.9016 c 0.8289,1.2815 1.6269,2.5829 2.3951,3.9016 v 0 c 0.8203,1.4082 0.3437,3.2147 -1.0645,4.035 -1.3299,0.7747 -3.0318,0.3971 -3.9094,-0.8673 -0.8527,-1.2286 -1.6957,-2.4639 -2.5284,-3.7062 v 0 c -0.9402,-1.4027 -0.5652,-3.302 0.8375,-4.2422 1.4028,-0.9402 3.3021,-0.5653 4.2423,0.8375 0.009,0.0138 0.0184,0.0277 0.0274,0.0416 z m -3.1061,-4.6966 c 1.0456,1.5586 2.0866,3.1207 3.1061,4.6966 v 0 c 0.9172,1.4179 0.5113,3.3109 -0.9066,4.2281 -1.4015,0.9066 -3.2712,0.5216 -4.2006,-0.865 -1.0352,-1.5445 -2.0711,-3.0888 -3.107,-4.6329 v 0 c -0.9462,-1.4106 -0.5699,-3.3212 0.8407,-4.2674 1.4105,-0.9463 3.3211,-0.57 4.2674,0.8406 0,0 0,0 0,0 z m -3.5418,-4.2163 c 0.6671,0.4612 1.2157,1.087 1.7238,1.7127 0.6502,0.8008 1.2436,1.6474 1.818,2.5036 v 0 c 0.9463,1.4105 0.5699,3.3211 -0.8407,4.2674 -1.4105,0.9463 -3.3211,0.5699 -4.2674,-0.8406 0,0 0,0 0,0 -0.5874,-0.8757 -1.1539,-1.7705 -1.6376,-2.7084 -0.3983,-0.7722 -0.7667,-1.5995 -0.8731,-2.4699 v 0 c -0.1749,-1.4315 0.8438,-2.7339 2.2753,-2.9088 0.6347,-0.0776 1.2758,0.0804 1.8017,0.444 z m -0.6644,-0.5923 c 0.1592,0.243 0.4302,0.4304 0.6644,0.5923 v 0 c 1.1863,0.8201 1.4833,2.4466 0.6632,3.633 -0.8201,1.1863 -2.4466,1.4832 -3.633,0.6632 -0.6137,-0.4243 -1.0167,-1.0908 -1.1072,-1.8314 -0.0543,-0.4443 -0.1214,-0.8952 -0.2553,-1.3236 v 0 c -0.3373,-1.0797 0.2645,-2.2284 1.3441,-2.5657 0.8736,-0.273 1.8222,0.0668 2.3238,0.8322 z m -0.272,-0.4741 c -0.004,-0.0142 0.0406,0.0851 0.0506,0.1044 0.0665,0.1274 0.1427,0.2496 0.2214,0.3697 v 0 c 0.62,0.9461 0.3557,2.2156 -0.5903,2.8357 -0.9461,0.62 -2.2156,0.3557 -2.8357,-0.5904 -0.1039,-0.1586 -0.1853,-0.3308 -0.2419,-0.5118 -0.1168,-0.374 -0.2324,-0.7487 -0.3352,-1.1268 v 0 c -0.2816,-1.0352 0.3294,-2.1027 1.3647,-2.3842 1.0112,-0.275 2.0583,0.3017 2.3664,1.3034 z m -0.8543,-1.4579 v 0 c 0.9894,0.3693 1.4921,1.4707 1.1228,2.46 -0.1408,0.3773 -0.3971,0.7004 -0.7324,0.9235 l 3e-4,-7e-4 c -0.7477,0.7693 -1.9775,0.7869 -2.7469,0.0392 -0.2495,-0.2425 -0.4293,-0.5475 -0.5206,-0.8833 -0.2472,-0.909 0.0753,-1.9094 0.903,-2.4104 0.6039,-0.3655 1.3272,-0.3697 1.9738,-0.1283 z m 1e-4,0 c 0.8563,0.3197 1.4647,1.0631 1.9563,1.8016 v 0 c 0.548,0.8231 0.3249,1.9346 -0.4982,2.4825 -0.7218,0.4805 -1.6841,0.3747 -2.2843,-0.2512 -0.1375,-0.1434 -0.2795,-0.2859 -0.4366,-0.4081 -0.0236,-0.0183 -0.0476,-0.0375 -0.0735,-0.0527 0.0372,0.0218 0.164,0.0723 -0.001,0.0106 v 0 c -0.9893,-0.3693 -1.4919,-1.4707 -1.1226,-2.46 0.3694,-0.9894 1.4708,-1.492 2.4601,-1.1227 0,0 0,0 0,0 z m 1.9564,1.8017 c 0.5261,0.7903 1.0365,1.5911 1.5434,2.394 v 0 c 0.4825,0.7643 0.2541,1.7752 -0.5103,2.2577 -0.7293,0.4604 -1.6907,0.276 -2.1978,-0.4217 -0.503,-0.6922 -1.0248,-1.3803 -1.6179,-1.9988 v 0 c -0.6844,-0.7136 -0.6606,-1.847 0.053,-2.5314 0.7137,-0.6843 1.847,-0.6606 2.5314,0.0531 0.0732,0.0763 0.1395,0.159 0.1982,0.2471 z m 1.5434,2.3939 c 0.6593,1.0444 1.3562,2.0648 2.0721,3.0712 v 0 c 0.5373,0.7554 0.3605,1.8033 -0.3948,2.3406 -0.7554,0.5373 -1.8033,0.3605 -2.3406,-0.3948 -0.0303,-0.0426 -0.0586,-0.0865 -0.0848,-0.1317 -0.6056,-1.0457 -1.2493,-2.0714 -1.9599,-3.0492 v 0 c -0.5315,-0.7312 -0.3696,-1.7548 0.3616,-2.2863 0.7313,-0.5314 1.7549,-0.3695 2.2863,0.3617 0.021,0.0289 0.041,0.0584 0.0601,0.0885 z m 2.0721,3.0712 c 0.8749,1.23 1.7922,2.4296 2.7312,3.6112 v 0 c 0.6819,0.8581 0.5391,2.1065 -0.319,2.7884 -0.858,0.6819 -2.1064,0.5391 -2.7883,-0.319 -0.0676,-0.085 -0.1281,-0.1755 -0.1809,-0.2704 -0.7438,-1.338 -1.496,-2.6714 -2.2632,-3.9961 v 0 c -0.4645,-0.8022 -0.1909,-1.8291 0.6113,-2.2936 0.7497,-0.4342 1.7067,-0.2265 2.2089,0.4795 z m 2.7312,3.6113 c 1.0866,1.3673 2.1309,2.7682 3.1325,4.1989 v 0 c 0.728,1.0398 0.4752,2.4729 -0.5646,3.201 -1.0399,0.728 -2.473,0.4752 -3.201,-0.5647 -0.036,-0.0513 -0.0698,-0.1041 -0.1014,-0.1582 -0.8672,-1.4835 -1.7187,-2.9762 -2.5537,-4.4781 v 0 c -0.5325,-0.958 -0.1877,-2.1663 0.7703,-2.6988 0.8486,-0.4717 1.9139,-0.2603 2.5179,0.4999 z m 3.1325,4.1988 c 1.0459,1.4939 2.0989,2.9826 3.1568,4.468 v 0 c 0.8354,1.173 0.5618,2.8011 -0.6112,3.6366 -1.173,0.8354 -2.8012,0.5618 -3.6366,-0.6112 -0.0704,-0.0988 -0.1338,-0.2024 -0.1897,-0.31 -0.8255,-1.5881 -1.683,-3.16 -2.5863,-4.7052 v 0 c -0.6406,-1.0959 -0.2716,-2.5035 0.8243,-3.1442 1.0329,-0.6038 2.3564,-0.3141 3.0427,0.666 z m 3.1568,4.468 c 1.1012,1.5461 2.2358,3.0685 3.4034,4.5652 v 0 c 1.0339,1.3253 0.7976,3.2378 -0.5277,4.2717 -1.3253,1.034 -3.2379,0.7977 -4.2718,-0.5276 -0.0997,-0.1279 -0.1891,-0.2635 -0.2673,-0.4057 -0.9449,-1.7185 -1.8695,-3.4481 -2.7741,-5.1882 v 0 c -0.6642,-1.2778 -0.1669,-2.8521 1.1109,-3.5163 1.1535,-0.5996 2.5724,-0.258 3.3266,0.8009 z m 3.4034,4.5651 c 1.0972,1.4066 2.1884,2.8178 3.2689,4.2373 v 0 c 1.0958,1.4395 0.8171,3.4948 -0.6224,4.5905 -1.4395,1.0958 -3.4948,0.8171 -4.5905,-0.6224 -1.1686,-1.5352 -2.1937,-3.1772 -3.1228,-4.8669 v 0 c -0.8098,-1.4729 -0.2723,-3.3235 1.2006,-4.1334 1.3092,-0.7198 2.9472,-0.383 3.8662,0.7949 z m 3.2689,4.2373 c 0.8207,1.0781 1.6457,2.1529 2.4845,3.217 v 0 c 1.0591,1.3435 0.8286,3.2911 -0.5149,4.3502 -1.1499,0.9065 -2.7774,0.884 -3.9018,-0.0539 -1.2387,-1.0333 -2.306,-2.2647 -3.2807,-3.5452 v 0 c -1.0958,-1.4395 -0.8171,-3.4948 0.6224,-4.5905 1.4395,-1.0958 3.4947,-0.8171 4.5905,0.6224 z m 2.4845,3.217 c 0.5054,0.641 1.0161,1.2825 1.5722,1.8808 v 0 c 0.9825,1.0569 0.9222,2.7103 -0.1348,3.6928 -0.6292,0.585 -1.5059,0.8232 -2.3447,0.6372 -1.3156,-0.2917 -2.488,-1.0625 -3.5094,-1.9145 v 0 c -1.3137,-1.0959 -1.4903,-3.0492 -0.3945,-4.3628 1.0958,-1.3137 3.0491,-1.4903 4.3628,-0.3945 0.1651,0.1377 0.3154,0.2922 0.4484,0.461 z m 1.5722,1.8808 c 0.0653,0.0702 0.1342,0.138 0.2095,0.1977 0.0901,0.0715 0.1361,0.0731 0.2593,0.1195 v 0 c 1.1397,0.4293 1.7156,1.7011 1.2864,2.8408 -0.3188,0.8464 -1.1222,1.4124 -2.0266,1.4275 -0.7429,0.0125 -1.4842,-0.095 -2.2081,-0.2555 v 0 c -1.4089,-0.3123 -2.2978,-1.7077 -1.9854,-3.1166 0.3124,-1.4089 1.7078,-2.2978 3.1167,-1.9854 0.5173,0.1147 0.9875,0.3839 1.3482,0.772 z m -0.2275,0.1771 v 0 c 0.9946,-0.6848 2.356,-0.4337 3.0409,0.5609 0.6849,0.9946 0.4338,2.356 -0.5608,3.0409 -0.018,0.0124 -0.0362,0.0245 -0.0545,0.0363 -0.7389,0.4768 -1.5878,0.7555 -2.4695,0.7703 v 0 c -1.2176,0.0205 -2.2213,-0.95 -2.2417,-2.1677 -0.0205,-1.2177 0.95,-2.2213 2.1677,-2.2418 0.0399,-7e-4 0.0798,-3e-4 0.1197,10e-4 l -0.002,-10e-5 z m -0.3056,0.2543 c 0.0366,-0.0366 0.0609,-0.0932 0.0829,-0.1388 0.0701,-0.145 0.1187,-0.3006 0.1596,-0.456 v 0 c 0.3299,-1.2554 1.615,-2.0056 2.8704,-1.6757 1.2554,0.3299 2.0056,1.6151 1.6757,2.8705 -0.029,0.1102 -0.066,0.2182 -0.1106,0.3232 -0.415,0.9748 -1.0459,1.8793 -1.9469,2.4607 v 0 c -1.0147,0.6547 -2.368,0.3629 -3.0227,-0.6518 -0.5586,-0.8657 -0.4371,-2.0039 0.2916,-2.7321 z m 0.2425,-0.5948 c 0.1747,-0.6649 0.1951,-1.3731 0.19,-2.0566 v 0 c -0.0103,-1.3908 1.1089,-2.5265 2.4997,-2.5368 1.3908,-0.0103 2.5266,1.1089 2.5368,2.4997 7e-4,0.0903 -0.004,0.1807 -0.0125,0.2706 -0.1145,1.1376 -0.3287,2.2845 -0.7785,3.341 v 0 c -0.5084,1.1943 -1.8888,1.7503 -3.0831,1.2419 -1.0732,-0.4568 -1.6489,-1.6317 -1.3524,-2.7598 z m 5.3263,-5.9539 c 0.039,1.3768 0.0256,2.7595 -0.1123,4.1308 v 0 c -0.1393,1.3839 -1.374,2.3929 -2.7578,2.2536 -1.2797,-0.1287 -2.2567,-1.201 -2.2662,-2.4871 -0.008,-1.1011 -0.173,-2.2002 -0.3858,-3.2784 v 0 c -0.2981,-1.5106 0.6848,-2.9769 2.1954,-3.2751 1.5106,-0.2981 2.9769,0.6848 3.275,2.1954 0.03,0.1519 0.0473,0.3061 0.0517,0.4608 z m -0.3674,-4.7938 c 0.1941,1.5913 0.3219,3.1912 0.3674,4.7938 v 0 c 0.0436,1.5391 -1.1687,2.8222 -2.7078,2.8659 -1.3609,0.0386 -2.5507,-0.9113 -2.8143,-2.247 -0.272,-1.3779 -0.6266,-2.7389 -1.0447,-4.0795 v 0 c -0.5234,-1.6785 0.413,-3.4636 2.0916,-3.987 1.6785,-0.5234 3.4635,0.4131 3.9869,2.0916 0.0572,0.1834 0.0976,0.3715 0.1209,0.5622 z m -1.0755,-5.162 c 0.5013,1.6868 0.8624,3.4152 1.0755,5.162 v 0 c 0.2129,1.7453 -1.0294,3.3327 -2.7747,3.5456 -1.526,0.1862 -2.967,-0.7448 -3.4247,-2.2124 -0.4729,-1.5168 -0.9356,-3.0367 -1.3883,-4.5597 v 0 c -0.5344,-1.7983 0.4901,-3.6893 2.2884,-4.2238 1.7982,-0.5345 3.6893,0.4901 4.2237,2.2883 z m -1.5932,-4.6488 c 0.5975,1.5258 1.1264,3.0782 1.5932,4.6489 v 0 c 0.5344,1.7982 -0.4901,3.6893 -2.2884,4.2237 -1.7983,0.5345 -3.6893,-0.49 -4.2238,-2.2883 -0.4301,-1.4473 -0.8804,-2.8887 -1.3538,-4.3225 v 0 c -0.5774,-1.7491 0.3725,-3.6352 2.1216,-4.2126 1.6823,-0.5554 3.5051,0.3013 4.1512,1.9508 z m -1.6478,-4.0359 c 0.571,1.3363 1.1178,2.6829 1.6478,4.036 v 0 c 0.6717,1.7151 -0.1742,3.6501 -1.8894,4.3218 -1.7152,0.6717 -3.6501,-0.1742 -4.3218,-1.8894 -0.0221,-0.0563 -0.0426,-0.1132 -0.0616,-0.1707 -0.4424,-1.3402 -0.8891,-2.6791 -1.342,-4.0159 v 0 c -0.5664,-1.672 0.3298,-3.4867 2.0019,-4.0532 1.5815,-0.5358 3.3089,0.236 3.9651,1.7714 z m -1.3731,-3.2181 c 0.4569,1.0731 0.9148,2.1457 1.3731,3.2181 v 0 c 0.6937,1.6234 -0.0599,3.5018 -1.6833,4.1956 -1.6234,0.6937 -3.5018,-0.0599 -4.1955,-1.6833 -0.0324,-0.0757 -0.0618,-0.1525 -0.0882,-0.2305 -0.3811,-1.1249 -0.7559,-2.2522 -1.1151,-3.3843 v 0 c -0.509,-1.6044 0.3789,-3.3176 1.9832,-3.8267 1.4973,-0.4751 3.1105,0.2658 3.7258,1.7111 z m -1.3123,-2.7263 c 0.4875,0.8834 0.9172,1.7982 1.3123,2.7263 v 0 c 0.6594,1.5486 -0.0615,3.3386 -1.6102,3.9979 -1.5486,0.6594 -3.3386,-0.0615 -3.9979,-1.6102 -0.038,-0.089 -0.0716,-0.1799 -0.1009,-0.2721 -0.3397,-1.0706 -0.5919,-2.1748 -0.6886,-3.2953 v 0 c -0.1291,-1.4949 0.9781,-2.8114 2.473,-2.9405 1.0697,-0.0923 2.0934,0.4539 2.6123,1.3939 z m -5.1507,-0.7742 v 0 c 0.0756,-1.2691 1.1656,-2.2366 2.4347,-2.1611 0.9146,0.0544 1.7098,0.646 2.0249,1.5064 0.1816,0.496 0.4364,0.9676 0.6911,1.4289 v 0 c 0.725,1.3137 0.2479,2.9664 -1.0657,3.6914 -1.3137,0.7251 -2.9664,0.248 -3.6915,-1.0657 -0.1836,-0.3328 -0.2955,-0.7004 -0.3281,-1.0791 -0.0665,-0.7702 -0.1114,-1.548 -0.0654,-2.3208 z m 0,10e-5 c 0.0571,-0.9592 0.6012,-1.8241 1.3967,-2.3473 0.4597,-0.3022 0.9862,-0.4866 1.5258,-0.5822 v 0 c 0.5566,-0.0985 1.0876,0.2727 1.1862,0.8293 2e-4,10e-4 4e-4,0.002 6e-4,0.004 0.0841,0.4856 0.1803,0.9774 0.3503,1.4416 v 0 c 0.4371,1.1938 -0.1763,2.516 -1.3701,2.9531 -1.1939,0.4372 -2.516,-0.1762 -2.9532,-1.3701 -0.1087,-0.2968 -0.1551,-0.6127 -0.1363,-0.9282 z"
       style="fill:#000000;fill-opacity:1;fill-rule:nonzero;stroke:none"
       id="path1022" /><path
       inkscape:connector-curvature="0"
       d="m 229.1693,549.1137 c 0.3969,0.006 0.7986,-0.0639 1.1879,-0.1323 v 0 c 0.5978,-0.1051 1.1676,0.2944 1.2727,0.8922 0.105,0.5978 -0.2944,1.1675 -0.8922,1.2726 -0.3754,0.066 -0.7618,0.1364 -1.1188,0.2746 l 0.002,0.002 c -0.5524,0.5624 -1.4562,0.5705 -2.0186,0.018 -0.5624,-0.5525 -0.5705,-1.4562 -0.018,-2.0186 0.4136,-0.4211 1.0438,-0.5442 1.5855,-0.3097 l -5e-4,0.001 z m -3.0074,1.5104 v 0 c 0,-1.2441 1.0085,-2.2526 2.2526,-2.2526 1.2441,0 2.2526,1.0085 2.2526,2.2526 v 0 c 0,1.2441 -1.0085,2.2526 -2.2526,2.2526 -1.2441,0 -2.2526,-1.0085 -2.2526,-2.2526 0,0 0,0 0,0 z m -0.0214,-0.5048 v 1e-4 c 0.1196,-0.4805 0.382,-0.9134 0.7527,-1.2417 0.7222,-0.6398 1.7095,-0.7611 2.6205,-0.5618 v 10e-5 c 1.417,0.31 2.3143,1.7101 2.0043,3.127 -0.3101,1.417 -1.7101,2.3143 -3.1271,2.0043 -0.1146,-0.0251 -0.2275,-0.0578 -0.3377,-0.098 -0.4344,-0.1583 -0.8386,-0.4016 -1.1683,-0.7271 -0.6542,-0.6456 -0.9698,-1.5979 -0.7444,-2.5029 z m 3.3733,-1.8033 c 0.3618,0.0791 0.7317,0.1262 1.0985,0.1745 v 0 c 1.5036,0.1977 2.5623,1.577 2.3645,3.0806 -0.1978,1.5036 -1.577,2.5622 -3.0807,2.3645 -0.1832,-0.0241 -0.3636,-0.0667 -0.5383,-0.127 -0.4358,-0.1506 -0.8715,-0.3015 -1.3047,-0.4593 v 0 c -1.3628,-0.4966 -2.065,-2.004 -1.5684,-3.3669 0.4502,-1.2354 1.7446,-1.9475 3.0291,-1.6664 z m 1.0985,0.1745 c 0.6813,0.0896 1.3643,0.1667 2.0475,0.2403 v 0 c 1.6237,0.1748 2.7982,1.6328 2.6234,3.2565 -0.1748,1.6237 -1.6328,2.7982 -3.2565,2.6234 -0.1909,-0.0206 -0.3794,-0.0597 -0.5627,-0.1168 -0.7049,-0.2195 -1.4083,-0.4443 -2.1062,-0.6853 v 0 c -1.4335,-0.4951 -2.1942,-2.0585 -1.6991,-3.492 0.4258,-1.233 1.6603,-1.9962 2.9536,-1.8261 z m 2.0475,0.2403 c 0.8714,0.0938 1.744,0.1758 2.6172,0.2502 v 0 c 1.7795,0.1515 3.0992,1.7169 2.9477,3.4964 -0.1515,1.7795 -1.7169,3.0992 -3.4964,2.9477 -0.229,-0.0195 -0.4552,-0.0633 -0.6748,-0.1308 -0.8637,-0.2652 -1.7269,-0.5317 -2.5895,-0.8004 v 0 c -1.5592,-0.4856 -2.4296,-2.1432 -1.944,-3.7024 0.4201,-1.3487 1.7354,-2.2119 3.1398,-2.0607 z m 2.6172,0.2502 c 1.2123,0.1032 2.4157,0.3005 3.6065,0.5477 v -10e-5 c 1.8321,0.3803 3.0091,2.1737 2.6289,4.0058 -0.3803,1.8321 -2.1737,3.0091 -4.0058,2.6289 -1.1622,-0.2412 -2.3181,-0.5205 -3.4531,-0.869 v 0 c -1.7072,-0.5242 -2.6663,-2.3331 -2.1421,-4.0404 0.4469,-1.4555 1.8485,-2.4021 3.3656,-2.2729 z m 3.6065,0.5477 c 0.6596,0.1368 1.2964,0.3761 1.9184,0.6305 0.7079,0.2895 1.4031,0.61 2.0929,0.9399 2.1098,1.0093 4.1766,2.1093 6.2329,3.2225 v 0 c 0.5867,0.3175 0.8048,1.0505 0.4873,1.6371 -0.2109,0.3895 -0.618,0.6323 -1.0609,0.6328 -2.3279,0.003 -4.6571,-0.006 -6.9838,-0.0864 -0.7994,-0.0275 -1.5991,-0.063 -2.3965,-0.1273 -0.558,-0.045 -1.1185,-0.1006 -1.6672,-0.2145 v 0 c -1.8321,-0.3802 -3.0091,-2.1737 -2.6289,-4.0058 0.3802,-1.8321 2.1737,-3.0091 4.0058,-2.6289 0,0 0,0 0,0 z"
       style="fill:#000000;fill-opacity:1;fill-rule:nonzero;stroke:none"
       id="path1024" /><path
       inkscape:connector-curvature="0"
       d="m 271.9705,569.4552 v 0 c 0.4798,-0.3717 1.1701,-0.2841 1.5418,0.1958 0.2208,0.285 0.2878,0.6603 0.1791,1.0041 -0.049,0.1552 -0.1,0.3099 -0.153,0.4638 v 0 c -0.2325,0.6743 -0.9676,1.0325 -1.642,0.8 -0.6743,-0.2325 -1.0324,-0.9677 -0.7999,-1.642 0.1383,-0.4013 0.4651,-0.7091 0.8741,-0.8231 l -10e-5,10e-4 z m 1.0975,0.1917 v 0 c 0.4654,0.3324 0.6568,0.9313 0.4704,1.4719 -0.0593,0.172 -0.1235,0.3428 -0.2062,0.5051 v 0 c -0.4407,0.8647 -1.4989,1.2084 -2.3635,0.7677 -0.8647,-0.4406 -1.2085,-1.4988 -0.7678,-2.3635 0.4406,-0.8647 1.4988,-1.2085 2.3635,-0.7678 0.1903,0.097 0.3613,0.2278 0.5047,0.3861 l -10e-4,5e-4 z m -0.218,-0.3567 c 0.244,0.289 0.4604,0.6143 0.5819,0.9748 v 0 c 0.1509,0.448 0.1149,0.9378 -0.0997,1.359 -0.3131,0.6141 -0.9478,1.0156 -1.6275,1.0863 -0.7387,0.0768 -1.4804,-0.235 -1.9579,-0.8006 v 0 c -0.7233,-0.8569 -0.6151,-2.138 0.2419,-2.8613 0.8569,-0.7234 2.1379,-0.6151 2.8613,0.2418 0,0 0,0 0,0 z m -0.3463,-0.477 c 0.1105,0.1615 0.22,0.3273 0.3464,0.477 v 0 c 0.7233,0.857 0.615,2.1381 -0.242,2.8614 -0.8569,0.7233 -2.138,0.615 -2.8613,-0.2419 0,0 0,-1e-4 0,-1e-4 -0.3513,-0.4161 -0.5649,-0.9277 -0.7179,-1.4453 v 0 c -0.3049,-1.0314 0.2841,-2.1146 1.3154,-2.4194 0.8103,-0.2395 1.6825,0.0708 2.1594,0.7683 z m -0.134,-0.6609 c 0.0254,0.1808 0.0569,0.362 0.106,0.5381 0.0133,0.0475 0.0277,0.0949 0.0455,0.1409 0.028,0.0723 -0.0279,-0.0427 0.0466,0.082 v 0 c 0.5517,0.9231 0.2506,2.1187 -0.6725,2.6705 -0.9231,0.5517 -2.1188,0.2506 -2.6705,-0.6725 -0.0838,-0.1402 -0.1496,-0.2904 -0.1959,-0.4471 -0.1012,-0.3424 -0.3103,-0.6691 -0.4898,-0.9737 v 0 c -0.5802,-0.9841 -0.2527,-2.2523 0.7315,-2.8326 0.9842,-0.5802 2.2524,-0.2527 2.8326,0.7315 0.1381,0.2343 0.2287,0.4935 0.2665,0.7629 z m -0.5357,-2.656 c 0.2167,0.8765 0.41,1.7613 0.5357,2.656 v 0 c 0.1589,1.1313 -0.6295,2.1773 -1.7609,2.3362 -0.8282,0.1163 -1.645,-0.2775 -2.0697,-0.998 -0.4826,-0.8187 -0.8658,-1.6945 -1.2057,-2.5807 v 0 c -0.4674,-1.2186 0.1417,-2.5853 1.3603,-3.0527 1.2186,-0.4674 2.5853,0.1417 3.0527,1.3603 0.0349,0.091 0.0641,0.1842 0.0876,0.2789 z m -0.8416,-3.359 c 0.283,1.1191 0.5645,2.2385 0.8416,3.359 v 0 c 0.3133,1.267 -0.4598,2.5481 -1.7268,2.8614 -1.1575,0.2862 -2.3469,-0.3346 -2.7738,-1.4479 -0.4079,-1.0635 -0.8262,-2.1229 -1.2482,-3.1809 v 0 c -0.5289,-1.3261 0.1173,-2.8298 1.4434,-3.3588 1.326,-0.5289 2.8298,0.1173 3.3587,1.4434 0.0421,0.1055 0.0772,0.2137 0.1051,0.3238 z m -1.0839,-4.1365 c 0.3718,1.3761 0.7344,2.7547 1.0839,4.1365 v 0 c 0.3501,1.3841 -0.4882,2.7899 -1.8723,3.14 -1.2568,0.3179 -2.5546,-0.3443 -3.0349,-1.5484 -0.518,-1.2987 -1.0466,-2.5931 -1.5825,-3.8845 v 0 c -0.6059,-1.4598 0.0863,-3.1344 1.5461,-3.7402 1.4598,-0.6059 3.1343,0.0863 3.7402,1.5461 0.0474,0.1142 0.0873,0.2312 0.1195,0.3505 z m -1.5734,-5.3911 c 0.5491,1.7896 1.0851,3.5839 1.5734,5.3911 v 0 c 0.4123,1.5258 -0.4904,3.097 -2.0162,3.5092 -1.3879,0.3751 -2.8385,-0.3378 -3.3896,-1.6657 -0.7103,-1.7112 -1.4012,-3.4305 -2.0866,-5.1518 v 0 c -0.6416,-1.6112 0.1444,-3.4373 1.7555,-4.0789 1.6111,-0.6415 3.4373,0.1445 4.0788,1.7556 0.0315,0.079 0.0597,0.1592 0.0847,0.2405 z m -2.0585,-5.369 c 0.8809,1.7018 1.4978,3.5416 2.0585,5.369 v 0 c 0.5087,1.6579 -0.4229,3.4142 -2.0807,3.9229 -1.5635,0.4798 -3.2333,-0.3208 -3.8383,-1.8401 -0.6938,-1.7424 -1.3606,-3.5157 -1.7996,-5.3421 v 0 c -0.3927,-1.6338 0.6134,-3.2766 2.2472,-3.6693 1.3609,-0.3271 2.7695,0.3166 3.4129,1.5596 z m -1.564,-3.0554 c 0.5157,1.0213 1.0381,2.0393 1.564,3.0555 v 0 c 0.7724,1.4922 0.1889,3.3281 -1.3033,4.1005 -1.4923,0.7724 -3.3281,0.1888 -4.1005,-1.3034 -0.1129,-0.218 -0.1989,-0.4489 -0.2563,-0.6876 -0.258,-1.0735 -0.5356,-2.1427 -0.8496,-3.2012 v 0 c -0.4196,-1.4145 0.3869,-2.9012 1.8014,-3.3208 1.2383,-0.3673 2.5621,0.204 3.1443,1.357 z m -4.0537,-5.531 c 0.8646,1.0421 1.7182,2.0951 2.5247,3.1831 0.5543,0.7477 1.1083,1.5148 1.529,2.3479 v 0 c 0.665,1.3169 0.1365,2.9237 -1.1805,3.5887 -1.317,0.665 -2.9237,0.1365 -3.5887,-1.1805 -0.072,-0.1426 -0.1311,-0.2913 -0.1765,-0.4444 -0.2617,-0.8821 -0.3953,-1.8036 -0.5178,-2.7134 -0.1804,-1.3393 -0.3079,-2.6858 -0.4214,-4.0322 v 0 c -0.0481,-0.5707 0.3755,-1.0723 0.9461,-1.1204 0.338,-0.0285 0.6686,0.1102 0.8852,0.3712 z"
       style="fill:#000000;fill-opacity:1;fill-rule:nonzero;stroke:none"
       id="path1026" /><path
       inkscape:connector-curvature="0"
       d="m 266.6161,563.0263 c 0.189,0.0347 0.3849,0.0335 0.576,0.0218 v 0 c 0.6059,-0.037 1.127,0.4241 1.164,1.03 0.037,0.6058 -0.4242,1.1269 -1.03,1.1639 0,0 0,0 0,0 -0.213,0.013 -0.427,0.0392 -0.6317,0.1014 l 0.002,0.002 c -0.6185,0.6893 -1.6786,0.7466 -2.3679,0.1281 -0.6892,-0.6184 -0.7466,-1.6786 -0.1281,-2.3679 0.6184,-0.6892 1.6786,-0.7466 2.3679,-0.1281 0.0168,0.0151 0.0333,0.0305 0.0496,0.0463 l -0.002,0.002 z m -4.4981,1.397 h 1e-4 c 0,-1.4689 1.1907,-2.6596 2.6596,-2.6596 1.4689,0 2.6596,1.1907 2.6596,2.6596 v 0 c 0,1.4689 -1.1907,2.6597 -2.6596,2.6597 -1.4689,0 -2.6596,-1.1908 -2.6596,-2.6597 0,0 0,0 0,0 z m 1.3664,-2.4522 v -10e-5 c 0.1739,-0.0847 0.3557,-0.1522 0.5428,-0.2016 0.7796,-0.2057 1.5863,-0.071 2.2976,0.2808 v 0 c 1.5559,0.7694 2.1934,2.6544 1.424,4.2102 -0.7694,1.5558 -2.6543,2.1933 -4.2101,1.4239 -0.7292,-0.3606 -1.2902,-0.9898 -1.5649,-1.7555 -0.1783,-0.4966 -0.2432,-1.0332 -0.178,-1.5574 0.127,-1.0213 0.7548,-1.9454 1.6886,-2.4003 z m 2.8402,0.079 c 0.3909,0.1933 0.7698,0.4114 1.1483,0.6275 v 0 c 1.6044,0.9157 2.1626,2.9586 1.2469,4.5629 -0.9157,1.6043 -2.9586,2.1626 -4.5629,1.2469 -0.1838,-0.1049 -0.3573,-0.227 -0.518,-0.3647 -0.7021,-0.6014 -1.3478,-1.3098 -1.6651,-2.1937 v 0 c -0.5863,-1.6336 0.2626,-3.4332 1.8962,-4.0196 0.8034,-0.2884 1.6895,-0.2376 2.4546,0.1407 z m 1.1483,0.6275 c 0.5971,0.3408 1.1929,0.6839 1.7884,1.0275 v 0 c 1.6365,0.9444 2.1976,3.0367 1.2532,4.6732 -0.9444,1.6365 -3.0366,2.1976 -4.6732,1.2532 0,0 0,0 0,0 -0.7703,-0.4445 -1.5257,-0.9292 -2.2024,-1.5088 v 0 c -1.4029,-1.2018 -1.566,-3.3133 -0.3642,-4.7162 1.0435,-1.2183 2.8051,-1.5241 4.1982,-0.7289 z m 1.7884,1.0276 c 0.7275,0.4198 1.4677,0.8174 2.2148,1.2009 v 0 c 1.683,0.8639 2.347,2.9285 1.4831,4.6115 -0.8639,1.683 -2.9285,2.347 -4.6115,1.4831 -0.006,-0.003 -0.0117,-0.006 -0.0175,-0.009 -0.8387,-0.4365 -1.67,-0.8876 -2.4889,-1.3601 v 0 c -1.6365,-0.9445 -2.1976,-3.0367 -1.2531,-4.6732 0.9444,-1.6365 3.0366,-2.1976 4.6731,-1.2531 z m 2.2148,1.2009 c 0.8442,0.4333 1.7046,0.8346 2.5746,1.2131 v 0 c 1.7483,0.7608 2.5489,2.7948 1.7882,4.5432 -0.7608,1.7483 -2.7948,2.5489 -4.5431,1.7882 -0.0298,-0.013 -0.0595,-0.0264 -0.0889,-0.0402 -0.968,-0.4541 -1.9283,-0.925 -2.8767,-1.4188 v 0 c -1.678,-0.8735 -2.3301,-2.942 -1.4565,-4.6199 0.87,-1.6712 2.9263,-2.326 4.6024,-1.4656 z m 2.5746,1.2131 c 0.9237,0.402 1.8669,0.7583 2.8229,1.0757 v 0 c 1.8499,0.614 2.8518,2.6115 2.2377,4.4614 -0.6141,1.8499 -2.6115,2.8518 -4.4614,2.2377 -0.0703,-0.0233 -0.1399,-0.0488 -0.2085,-0.0766 -1.0905,-0.4399 -2.1699,-0.9075 -3.2345,-1.407 v 0 c -1.7262,-0.8098 -2.469,-2.8656 -1.6592,-4.5918 0.7937,-1.6918 2.7894,-2.445 4.503,-1.6994 z m 2.8229,1.0757 c 1.0344,0.3433 2.0751,0.668 3.1215,0.9728 v 0 c 1.9001,0.5534 2.9917,2.5423 2.4383,4.4424 -0.5534,1.9 -2.5423,2.9917 -4.4424,2.4383 0,0 0,0 0,0 -1.2029,-0.3504 -2.3877,-0.7622 -3.5496,-1.231 v 0 c -1.8077,-0.7292 -2.6819,-2.7857 -1.9527,-4.5933 0.697,-1.7277 2.6168,-2.6161 4.3849,-2.0292 z m 3.1215,0.9728 c 1.0472,0.305 2.0938,0.6122 3.1397,0.9219 v 0 c 1.7883,0.5296 2.8087,2.4087 2.2791,4.1971 -0.4342,1.4661 -1.7992,2.4576 -3.3278,2.417 -1.3861,-0.0368 -2.7646,-0.2678 -4.0951,-0.6553 v 0 c -1.9,-0.5534 -2.9917,-2.5424 -2.4383,-4.4424 0.5535,-1.9 2.5424,-2.9917 4.4424,-2.4383 z m 3.1397,0.9219 c 0.822,0.2435 1.6517,0.4643 2.4916,0.6376 v 0 c 1.5932,0.3288 2.6182,1.8868 2.2894,3.48 -0.2499,1.2113 -1.2299,2.1374 -2.4534,2.3185 -1.1163,0.1653 -2.249,0.2079 -3.3762,0.178 v 0 c -1.8645,-0.0495 -3.3359,-1.6011 -3.2864,-3.4656 0.0495,-1.8645 1.6011,-3.3358 3.4656,-3.2863 0.2946,0.008 0.5869,0.0541 0.8694,0.1378 z m 2.4916,0.6376 c 0.5456,0.1126 1.1034,0.2046 1.662,0.2093 v 0 c 1.376,0.0115 2.4823,1.1363 2.4708,2.5124 -0.008,0.9329 -0.5361,1.7833 -1.369,2.2037 -0.914,0.4613 -1.9187,0.7238 -2.9278,0.8732 v -10e-5 c -1.6093,0.2382 -3.1069,-0.8732 -3.3451,-2.4825 -0.2381,-1.6092 0.8733,-3.1068 2.4825,-3.345 0.3413,-0.0505 0.6887,-0.0407 1.0266,0.029 z m 1.6621,0.2093 c 0.3038,0.002 0.6235,-0.007 0.9161,-0.098 v 0 c 1.0618,-0.3316 2.1913,0.2603 2.5229,1.3221 0.1804,0.5777 0.0915,1.2059 -0.2421,1.7108 -0.5137,0.7774 -1.2696,1.3645 -2.0951,1.7812 v 0 c -1.2286,0.62 -2.7271,0.1267 -3.3472,-1.1018 -0.62,-1.2286 -0.1267,-2.7271 1.1018,-3.3471 0.3545,-0.1789 0.7465,-0.2705 1.1436,-0.2672 z m 0.9161,-0.098 c 0.006,-0.002 0.0507,-0.0219 0.0378,-0.013 -0.0474,0.0325 -0.1306,0.1521 0.0335,-0.0758 v 0 c 0.5138,-0.7138 1.509,-0.876 2.2228,-0.3622 0.4137,0.2978 0.6599,0.7757 0.6622,1.2854 0.003,0.7847 -0.2442,1.5458 -0.6755,2.1985 v 0 c -0.6132,0.928 -1.8626,1.1833 -2.7907,0.57 -0.9281,-0.6132 -1.1833,-1.8626 -0.5701,-2.7907 0.2557,-0.387 0.6372,-0.6739 1.08,-0.8122 z m -0.013,0.0411 c 0.0952,-0.1637 0.0733,-0.4162 0.0586,-0.5939 v 0 c -0.0583,-0.7071 0.4677,-1.3277 1.1749,-1.386 0.5588,-0.0461 1.0829,0.2756 1.295,0.7946 0.2565,0.6281 0.4378,1.2964 0.4408,1.9788 v 0 c 0.004,0.8795 -0.706,1.5956 -1.5856,1.5994 -0.8795,0.004 -1.5956,-0.706 -1.5994,-1.5855 -0.001,-0.2836 0.0732,-0.5623 0.2157,-0.8074 z m 1.2394,-3.3007 c 0.5058,0.6516 0.9758,1.3487 1.2891,2.1154 v 0 c 0.2683,0.6569 -0.0467,1.4069 -0.7036,1.6752 -0.6569,0.2684 -1.4069,-0.0466 -1.6752,-0.7035 -0.0496,-0.1214 -0.0803,-0.2496 -0.0911,-0.3803 -0.0435,-0.5279 -0.3176,-1.0378 -0.5898,-1.4799 v 0 c -0.3122,-0.5072 -0.1542,-1.1716 0.3531,-1.4839 0.4688,-0.2887 1.0798,-0.1779 1.4175,0.257 z m -2.0024,-2.2193 c 0.7127,0.6968 1.3908,1.4316 2.0024,2.2193 v 0 c 0.3653,0.4706 0.2799,1.1482 -0.1906,1.5135 -0.4706,0.3653 -1.1481,0.28 -1.5134,-0.1906 -0.0239,-0.0308 -0.0461,-0.0628 -0.0666,-0.096 -0.4531,-0.7361 -1.0231,-1.3965 -1.6426,-1.997 v 0 c -0.4011,-0.3887 -0.4111,-1.0289 -0.0224,-1.43 0.3887,-0.401 1.029,-0.411 1.43,-0.0223 10e-4,10e-4 0.002,0.002 0.003,0.003 z m -2.5045,-2.194 c 0.8714,0.6881 1.7106,1.4176 2.5046,2.194 h -10e-5 c 0.3994,0.3905 0.4065,1.0308 0.016,1.4301 -0.3892,0.398 -1.027,0.4066 -1.4268,0.0191 -0.7367,-0.714 -1.5296,-1.369 -2.3596,-1.9715 v 0 c -0.4687,-0.3402 -0.5729,-0.996 -0.2327,-1.4647 0.3402,-0.4687 0.996,-0.5729 1.4647,-0.2327 0.0115,0.008 0.0228,0.0169 0.0339,0.0257 z m -2.6418,-2.0669 c 0.8837,0.685 1.7643,1.374 2.6418,2.0669 v 0 c 0.4545,0.3589 0.532,1.0184 0.1731,1.4729 -0.3487,0.4416 -0.9837,0.5293 -1.439,0.1988 -0.8745,-0.6347 -1.7784,-1.229 -2.7079,-1.78 v 0 c -0.5637,-0.3342 -0.7498,-1.0621 -0.4157,-1.6258 0.3342,-0.5637 1.0621,-0.7498 1.6258,-0.4156 0.0423,0.025 0.083,0.0527 0.1219,0.0828 z m -2.861,-2.0236 c 0.9817,0.6337 1.9374,1.3078 2.861,2.0236 v 0 c 0.518,0.4015 0.6124,1.1468 0.2109,1.6648 -0.3666,0.473 -1.0281,0.599 -1.5429,0.2938 -0.9798,-0.5808 -1.9546,-1.1698 -2.925,-1.7661 v 0 c -0.6162,-0.3787 -0.8088,-1.1853 -0.43,-1.8015 0.3787,-0.6163 1.1852,-0.8088 1.8015,-0.4301 0.008,0.005 0.0164,0.0102 0.0245,0.0155 z m -3.0238,-2.0101 c 0.9999,0.6821 2.0069,1.3536 3.0238,2.0101 v 0 c 0.6077,0.3923 0.7823,1.2029 0.39,1.8106 -0.3861,0.5982 -1.1794,0.7783 -1.786,0.4055 -0.9931,-0.6104 -2.0302,-1.148 -3.0904,-1.6316 v 0 c -0.751,-0.3427 -1.0821,-1.2292 -0.7395,-1.9802 0.3426,-0.751 1.2292,-1.0821 1.9802,-0.7395 0.0774,0.0353 0.1516,0.0772 0.2219,0.1251 z m -3.2154,-2.1487 c 1.0787,0.7058 2.1504,1.4223 3.2153,2.1487 v 0 c 0.682,0.4651 0.8577,1.395 0.3926,2.077 -0.41,0.601 -1.1932,0.8195 -1.8551,0.5176 -1.1335,-0.5171 -2.2815,-1.0023 -3.4432,-1.4525 v 0 c -0.9579,-0.3711 -1.4335,-1.4485 -1.0624,-2.4064 0.3712,-0.9579 1.4486,-1.4335 2.4065,-1.0624 0.1213,0.0471 0.2374,0.1067 0.3463,0.178 z m -3.2533,-1.9124 c 1.1178,0.5783 2.2004,1.2234 3.2533,1.9124 v 0 c 0.8596,0.5624 1.1005,1.7152 0.5381,2.5749 -0.4808,0.7347 -1.4098,1.0332 -2.2285,0.7159 -1.142,-0.4425 -2.2749,-0.9093 -3.3925,-1.4105 v 0 c -1.0614,-0.476 -1.536,-1.7223 -1.06,-2.7838 0.476,-1.0614 1.7223,-1.5359 2.7837,-1.0599 0.0358,0.016 0.0711,0.033 0.1059,0.051 z m -2.4839,-1.2969 c 0.8256,0.4369 1.6543,0.8678 2.4839,1.2969 v 0 c 1.0332,0.5345 1.4375,1.8053 0.9031,2.8386 -0.5135,0.9926 -1.713,1.4114 -2.7327,0.9541 -0.8827,-0.3959 -1.7624,-0.7995 -2.6298,-1.2281 v 0 c -1.074,-0.5307 -1.5144,-1.8315 -0.9837,-2.9054 0.5307,-1.074 1.8315,-1.5144 2.9054,-0.9837 0.0181,0.009 0.036,0.0181 0.0538,0.0275 z m -0.6047,-0.3413 c -0.02,-0.027 -0.0542,-0.0705 -0.0734,-0.0882 0.0297,0.0276 0.0626,0.0521 0.0952,0.0761 0.183,0.1346 0.3825,0.2472 0.5829,0.3534 v -10e-5 c 1.0587,0.5604 1.4627,1.873 0.9023,2.9317 -0.5494,1.0379 -1.825,1.4501 -2.8778,0.9299 -0.2141,-0.1058 -0.432,-0.2066 -0.6571,-0.287 -0.0557,-0.0199 -0.1119,-0.0388 -0.1692,-0.0536 -0.0491,-0.0126 0.0203,5e-4 0.0359,0.002 v 0 c -1.3354,-0.117 -2.323,-1.2945 -2.206,-2.6298 0.1171,-1.3354 1.2945,-2.323 2.6299,-2.206 0.6914,0.0606 1.3238,0.4144 1.7373,0.9718 z m 0.1423,0.2146 v 0 c 0.6801,1.1551 0.2951,2.6429 -0.86,3.3231 -0.3953,0.2327 -0.8485,0.3487 -1.307,0.3344 l 2e-4,-0.005 c -1.5305,0.2808 -2.9989,-0.7324 -3.2796,-2.2629 -0.2808,-1.5305 0.7324,-2.9988 2.2629,-3.2796 1.3847,-0.254 2.7444,0.5531 3.1846,1.8903 l -0.001,-7e-4 z m -5.3121,-0.8814 v 0 c 0.0916,-0.1426 0.1949,-0.2774 0.3087,-0.403 0.5762,-0.6357 1.3949,-1.0034 2.2474,-1.0422 0.3271,-0.0149 0.6552,0.0173 0.975,0.0869 v 0 c 1.6909,0.368 2.7633,2.0371 2.3953,3.728 -0.3679,1.6909 -2.037,2.7633 -3.7279,2.3953 -0.9429,-0.2052 -1.7917,-0.7184 -2.2834,-1.5797 v 0 c -0.4431,-0.776 -0.5261,-1.7065 -0.2274,-2.5488 z m 3.5311,-1.3583 c 0.8208,0.1786 1.5804,0.5914 2.3032,1.0056 v 0 c 1.4392,0.8249 1.9372,2.6602 1.1124,4.0994 -0.6968,1.2157 -2.1415,1.7881 -3.4818,1.3794 -0.4181,-0.1274 -0.8388,-0.268 -1.2665,-0.3611 v 0 c -1.6909,-0.368 -2.7633,-2.0371 -2.3953,-3.728 0.368,-1.6909 2.0371,-2.7633 3.728,-2.3953 z m 2.3032,1.0056 c 0.71,0.4069 1.4564,0.7508 2.2068,1.0754 v 0 c 1.4423,0.6239 2.1058,2.2989 1.4819,3.7413 -0.6087,1.4071 -2.2227,2.079 -3.6501,1.5194 -0.793,-0.3108 -1.593,-0.6088 -2.408,-0.8573 v 0 c -1.5867,-0.4837 -2.4808,-2.1622 -1.997,-3.7489 0.4838,-1.5866 2.1622,-2.4807 3.7489,-1.997 0.2152,0.0657 0.4223,0.1552 0.6175,0.2671 z m 2.2068,1.0754 c 1.0019,0.4334 2.0366,0.789 3.0817,1.1024 v -10e-5 c 1.5023,0.4504 2.355,2.0334 1.9046,3.5357 -0.4503,1.5022 -2.0333,2.355 -3.5356,1.9046 -0.0206,-0.006 -0.0412,-0.0126 -0.0617,-0.0193 -1.1967,-0.3887 -2.3856,-0.8033 -3.5572,-1.2626 v 0 c -1.4631,-0.5736 -2.1842,-2.2246 -1.6106,-3.6877 0.5736,-1.4631 2.2246,-2.1841 3.6877,-1.6106 0.0306,0.012 0.061,0.0246 0.0911,0.0376 z m 3.0817,1.1024 c 1.1477,0.344 2.3154,0.6213 3.4957,0.8274 v 0 c 1.5763,0.2753 2.631,1.7763 2.3557,3.3526 -0.2753,1.5762 -1.7763,2.6309 -3.3525,2.3556 -0.0341,-0.006 -0.0681,-0.0125 -0.1019,-0.0197 -1.3813,-0.2925 -2.7468,-0.6589 -4.0897,-1.095 v 0 c -1.4916,-0.4844 -2.3081,-2.0864 -1.8236,-3.578 0.4766,-1.4677 2.0381,-2.2861 3.5163,-1.843 z m 3.4958,0.8274 c 1.0693,0.1867 2.1458,0.3416 3.2281,0.4282 v 0 c 1.6144,0.1293 2.8183,1.5427 2.689,3.1571 -0.1292,1.6143 -1.5426,2.8182 -3.157,2.689 -1.2979,-0.1039 -2.5858,-0.3161 -3.8589,-0.5858 v 0 c -1.5654,-0.3315 -2.5657,-1.8693 -2.2341,-3.4347 0.3231,-1.5259 1.7964,-2.5222 3.3329,-2.2538 z m 3.2281,0.4282 c 1.0808,0.0866 2.1593,0.2014 3.2336,0.3476 v 0 c 1.4499,0.1972 2.4654,1.5324 2.2681,2.9823 -0.1475,1.0847 -0.947,1.9669 -2.0119,2.2203 -1.2927,0.3076 -2.6338,0.4019 -3.9578,0.2959 v 0 c -1.6143,-0.1292 -2.8182,-1.5427 -2.689,-3.157 0.1292,-1.6144 1.5427,-2.8183 3.157,-2.6891 0,0 0,0 0,0 z m 3.2336,0.3476 c 0.6792,0.0924 1.376,0.1485 2.0599,0.0749 v 0 c 1.1817,-0.1273 2.2427,0.7274 2.37,1.9091 0.0948,0.8803 -0.3593,1.7289 -1.1444,2.1384 -0.9533,0.4971 -1.9858,0.8319 -3.0293,1.0802 v 0 c -1.4235,0.3387 -2.852,-0.5406 -3.1907,-1.9641 -0.3387,-1.4235 0.5406,-2.852 1.9641,-3.1907 0.3178,-0.0757 0.6468,-0.0919 0.9704,-0.0478 z m 2.0599,0.0749 c 0.4894,-0.0527 0.9883,-0.1247 1.4553,-0.2858 v 0 c 0.9439,-0.3257 1.973,0.1755 2.2987,1.1193 0.2535,0.7347 0.009,1.5492 -0.607,2.0229 -0.5981,0.4598 -1.2535,0.8428 -1.9214,1.1911 v 0 c -1.0538,0.5496 -2.3535,0.1408 -2.9031,-0.9129 -0.5496,-1.0538 -0.1409,-2.3535 0.9129,-2.9031 0.2382,-0.1242 0.4975,-0.2027 0.7646,-0.2315 z m 1.4553,-0.2858 c 0.2363,-0.0815 0.4774,-0.1866 0.6668,-0.3538 v 0 c 0.6437,-0.5681 1.6261,-0.5069 2.1942,0.1369 0.4199,0.4756 0.5085,1.1587 0.224,1.7258 -0.3249,0.6476 -0.8217,1.1937 -1.3933,1.6333 v 0 c -0.7916,0.6086 -1.9266,0.4603 -2.5352,-0.3312 -0.6086,-0.7915 -0.4604,-1.9266 0.3312,-2.5352 0.1547,-0.119 0.3277,-0.2121 0.5123,-0.2758 z m 0.6668,-0.3538 c 0.0591,-0.0521 0.1022,-0.1139 0.1152,-0.1925 v 0 c 0.1257,-0.7589 0.8427,-1.2723 1.6016,-1.1466 0.6938,0.1148 1.1931,0.7288 1.1641,1.4314 -0.0254,0.6162 -0.1864,1.2196 -0.4627,1.7704 v 0 c -0.385,0.7674 -1.3192,1.0773 -2.0866,0.6923 -0.7674,-0.385 -1.0774,-1.3192 -0.6924,-2.0866 0.0892,-0.1778 0.2117,-0.3368 0.3608,-0.4684 z m 2.4416,-1.8623 c 0.2907,0.6088 0.4673,1.2765 0.4394,1.9546 h -10e-5 c -0.0316,0.7686 -0.6804,1.366 -1.4489,1.3343 -0.7686,-0.0317 -1.366,-0.6804 -1.3343,-1.449 0.002,-0.057 0.008,-0.1138 0.0175,-0.1701 0.0294,-0.1774 -0.0446,-0.3696 -0.1167,-0.5272 v 0 c -0.3101,-0.6772 -0.0125,-1.4775 0.6647,-1.7876 0.6695,-0.3065 1.4611,-0.0194 1.7784,0.645 z m -1.3248,-1.8932 c 0.5109,0.575 0.9918,1.196 1.3248,1.8932 v 0 c 0.321,0.672 0.0364,1.4771 -0.6357,1.7981 -0.6721,0.321 -1.4772,0.0364 -1.7982,-0.6357 -0.003,-0.007 -0.006,-0.0131 -0.009,-0.0198 -0.1933,-0.4221 -0.5464,-0.777 -0.8801,-1.0898 v 0 c -0.5625,-0.5273 -0.5911,-1.4108 -0.0637,-1.9734 0.5273,-0.5625 1.4108,-0.591 1.9733,-0.0637 0.031,0.029 0.0606,0.0594 0.0888,0.0911 z m -2.062,-1.9143 c 0.7384,0.5795 1.438,1.2122 2.062,1.9143 v 0 c 0.5122,0.5764 0.4602,1.4588 -0.1162,1.971 -0.5395,0.4795 -1.3556,0.4686 -1.8822,-0.025 -0.5358,-0.5023 -1.1476,-0.9195 -1.7868,-1.2783 v 0 c -0.7497,-0.4209 -1.0162,-1.3698 -0.5953,-2.1195 0.4209,-0.7497 1.3698,-1.0162 2.1195,-0.5953 0.0696,0.0391 0.1361,0.0835 0.199,0.1328 z m -2.5047,-1.7804 c 0.8598,0.5572 1.6986,1.1477 2.5047,1.7804 v 0 c 0.6763,0.5308 0.7943,1.5093 0.2635,2.1857 -0.474,0.6038 -1.3173,0.7721 -1.9867,0.3963 -0.7992,-0.4487 -1.6254,-0.8485 -2.4669,-1.2116 v 0 c -0.9092,-0.3923 -1.3282,-1.4473 -0.936,-2.3565 0.3923,-0.9092 1.4474,-1.3283 2.3566,-0.936 0.0921,0.0397 0.1807,0.0871 0.2648,0.1417 z m -2.9759,-1.7443 c 1.0145,0.5416 2.0107,1.1187 2.9759,1.7443 v 0 c 0.831,0.5385 1.0681,1.6487 0.5295,2.4797 -0.4757,0.734 -1.4117,1.0176 -2.2148,0.6711 -0.9592,-0.4138 -1.9382,-0.7813 -2.9273,-1.117 v 0 c -1.0803,-0.3665 -1.6589,-1.5395 -1.2923,-2.6198 0.3665,-1.0803 1.5395,-1.6589 2.6198,-1.2923 0.1065,0.0361 0.21,0.0809 0.3092,0.1339 z m -3.0976,-1.7059 c 1.0255,0.5813 2.0578,1.1506 3.0976,1.7059 v -1e-4 c 1.0063,0.5374 1.3865,1.7888 0.8492,2.7951 -0.4763,0.892 -1.5283,1.3081 -2.4859,0.9832 -1.0389,-0.3526 -2.103,-0.6295 -3.1795,-0.8401 v 0 c -1.3595,-0.2661 -2.246,-1.5839 -1.9799,-2.9435 0.266,-1.3595 1.5839,-2.246 2.9434,-1.9799 0.2651,0.0519 0.5201,0.1462 0.7551,0.2794 z m -3.6519,-1.7866 c 1.2511,0.5229 2.4722,1.118 3.6519,1.7866 v 0 c 1.2052,0.6831 1.6285,2.2139 0.9454,3.4191 -0.5321,0.9388 -1.605,1.4321 -2.664,1.2249 -1.2483,-0.2444 -2.4929,-0.5071 -3.7337,-0.7869 v 0 c -1.6018,-0.3611 -2.6076,-1.9525 -2.2465,-3.5543 0.3612,-1.6018 1.9525,-2.6076 3.5543,-2.2465 0.1685,0.038 0.3333,0.0906 0.4926,0.1571 z m -4.0829,-1.5009 c 1.3791,0.4486 2.7446,0.9416 4.0829,1.5009 v 10e-5 c 1.5151,0.6331 2.23,2.3746 1.5968,3.8897 -0.5566,1.3317 -1.9892,2.0714 -3.3972,1.7539 -1.3307,-0.3 -2.6618,-0.5986 -3.9931,-0.8963 v 0 c -1.7478,-0.3908 -2.8478,-2.1244 -2.457,-3.8721 0.3908,-1.7478 2.1244,-2.8478 3.8721,-2.457 0.0998,0.0223 0.1983,0.0492 0.2955,0.0808 z m -3.8441,-1.1799 c 1.2896,0.3656 2.5695,0.7653 3.8441,1.1799 v 0 c 1.7031,0.554 2.6346,2.3837 2.0807,4.0868 -0.5173,1.5903 -2.1592,2.5265 -3.7913,2.1615 -1.2586,-0.2814 -2.5178,-0.5599 -3.7784,-0.8319 v 0 c -1.8361,-0.3961 -3.0034,-2.2056 -2.6073,-4.0416 0.3961,-1.836 2.2056,-3.0033 4.0416,-2.6072 0.0708,0.0152 0.141,0.0327 0.2106,0.0525 z m -2.8577,-0.7242 c 0.9625,0.1982 1.9127,0.4562 2.8577,0.7242 v 0 c 1.807,0.5124 2.8565,2.3926 2.3441,4.1997 -0.4894,1.726 -2.2354,2.7749 -3.9891,2.3966 -0.8681,-0.1873 -1.7365,-0.3737 -2.6064,-0.5528 v 0 c -1.8688,-0.3849 -3.0718,-2.2119 -2.687,-4.0807 0.3849,-1.8688 2.2119,-3.0718 4.0807,-2.687 0,0 0,0 0,0 z m -3.0131,-0.0357 c 0.9835,-0.2725 2.0273,-0.1673 3.0132,0.0357 v 0 c 1.8688,0.3849 3.0718,2.2119 2.6869,4.0808 -0.3849,1.8688 -2.2119,3.0718 -4.0808,2.6869 -0.7128,-0.1469 -1.4371,-0.3139 -2.1025,-0.616 v 0 c -1.6602,-0.7537 -2.395,-2.7105 -1.6414,-4.3706 0.4042,-0.8904 1.1823,-1.5558 2.1246,-1.8168 z m -2.2618,2.1006 c 0.361,-1.026 1.2227,-1.8128 2.2619,-2.1007 v 0 c 1.7571,-0.4867 3.5761,0.5431 4.0628,2.3002 0.4868,1.7571 -0.5431,3.576 -2.3001,4.0628 -0.7461,0.2066 -1.5411,0.1445 -2.2461,-0.1755 -0.4054,-0.1841 -0.7751,-0.4442 -1.0803,-0.7697 v 0 c -0.8334,-0.8888 -1.1026,-2.1678 -0.6982,-3.3171 z"
       style="fill:#000000;fill-opacity:1;fill-rule:nonzero;stroke:none"
       id="path1028" /><path
       inkscape:connector-curvature="0"
       d="m 304.5751,567.1478 v 0 c 0.4912,-0.3565 1.1784,-0.2474 1.535,0.2438 0.1639,0.2257 0.2357,0.5053 0.2011,0.7821 l 6e-4,-0.002 c 0.4896,0.9372 0.1267,2.0938 -0.8104,2.5833 -0.9372,0.4896 -2.0937,0.1268 -2.5833,-0.8104 -0.4896,-0.9371 -0.1268,-2.0937 0.8104,-2.5833 0.2617,-0.1367 0.5516,-0.211 0.8468,-0.2171 l -2e-4,0.003 z m 1.7979,0.6218 c 0.1931,0.5461 0.3807,1.1106 0.3602,1.6975 v 0 c -0.0179,0.5097 -0.1833,1.0032 -0.4763,1.4206 -0.5858,0.835 -1.614,1.2588 -2.6163,1.1365 -0.5191,-0.0634 -1.0156,-0.2672 -1.437,-0.5755 -0.5711,-0.4179 -0.9871,-1.0134 -1.2424,-1.6688 v 0 c -0.5789,-1.4856 0.1562,-3.1592 1.6418,-3.7381 1.4856,-0.5789 3.1592,0.1562 3.7381,1.6418 0.0111,0.0285 0.0218,0.0572 0.0319,0.086 z m -0.7892,-2.3264 c 0.2548,0.7782 0.5163,1.5544 0.7892,2.3264 v 0 c 0.5314,1.5033 -0.2565,3.1527 -1.7597,3.6841 -1.4696,0.5195 -3.0862,-0.2214 -3.6521,-1.6738 -0.3249,-0.8337 -0.6211,-1.6785 -0.8995,-2.5287 v 0 c -0.4993,-1.5249 0.3322,-3.1658 1.8571,-3.6651 1.5249,-0.4992 3.1658,0.3322 3.665,1.8571 z m -0.7492,-2.8804 c 0.2083,0.9694 0.4404,1.9374 0.7492,2.8803 v 0 c 0.4993,1.5249 -0.3321,3.1658 -1.857,3.6651 -1.5248,0.4993 -3.1658,-0.3321 -3.6651,-1.857 0,0 0,0 0,0 -0.3309,-1.0108 -0.6865,-2.0135 -1.05,-3.013 v 0 c -0.573,-1.5762 0.2402,-3.3185 1.8163,-3.8916 1.5762,-0.573 3.3185,0.2402 3.8916,1.8163 0.0474,0.1305 0.0859,0.2641 0.115,0.3999 z m -0.8228,-3.9835 c 0.2652,1.3298 0.5381,2.6578 0.8228,3.9835 v 0 c 0.3522,1.6397 -0.6915,3.2545 -2.3312,3.6067 -1.4829,0.3186 -2.9734,-0.5059 -3.4917,-1.9313 -0.4916,-1.3523 -0.9311,-2.7232 -1.3349,-4.1041 v 0 c -0.506,-1.7305 0.4866,-3.5436 2.2171,-4.0497 1.7305,-0.506 3.5436,0.4866 4.0497,2.2171 0.0268,0.0916 0.0495,0.1843 0.0682,0.2778 z m -0.8784,-4.3037 c 0.2993,1.4332 0.592,2.8679 0.8784,4.3037 v 0 c 0.3526,1.7682 -0.7949,3.4875 -2.5631,3.8401 -1.6596,0.331 -3.2969,-0.6611 -3.7719,-2.2853 -0.4326,-1.4793 -0.8086,-2.9754 -1.1237,-4.4842 v 0 c -0.3795,-1.8171 0.7859,-3.5978 2.603,-3.9773 1.8171,-0.3795 3.5978,0.7859 3.9773,2.603 z m -0.6996,-3.8554 c 0.1953,1.2917 0.4325,2.5767 0.6996,3.8554 v 0 c 0.3795,1.8171 -0.7858,3.5978 -2.6029,3.9773 -1.8171,0.3795 -3.5978,-0.7858 -3.9774,-2.6029 -0.2979,-1.4264 -0.5477,-2.8634 -0.7318,-4.3091 v 0 c -0.2328,-1.8289 1.0611,-3.5003 2.8901,-3.7332 1.7987,-0.229 3.4513,1.0197 3.7224,2.8125 z m -6.8784,-2.8508 v 0 c 0.008,-1.791 1.4666,-3.2364 3.2576,-3.2283 1.662,0.008 3.0492,1.2702 3.2127,2.9241 0.1042,1.0554 0.2496,2.1066 0.4081,3.1551 v 0 c 0.2756,1.823 -0.9788,3.5242 -2.8018,3.7999 -1.823,0.2756 -3.5242,-0.9788 -3.7999,-2.8018 -0.004,-0.0258 -0.008,-0.0516 -0.0108,-0.0775 -0.1591,-1.2499 -0.2716,-2.5104 -0.2659,-3.7715 z m 0,0 c 0.005,-1.2012 0.1716,-2.4244 0.6379,-3.5386 v 0 c 0.6171,-1.4746 2.3128,-2.1697 3.7874,-1.5526 0.939,0.393 1.6025,1.2504 1.7474,2.2579 0.1209,0.8403 0.2141,1.6845 0.2976,2.5292 v 0 c 0.176,1.7824 -1.1261,3.37 -2.9085,3.5461 -1.7824,0.1761 -3.3701,-1.1261 -3.5461,-2.9085 -0.011,-0.1108 -0.0162,-0.2222 -0.0157,-0.3335 z m 0.6379,-3.5386 c 0.3644,-0.8707 0.8715,-1.6848 1.5436,-2.3517 v 0 c 0.972,-0.9646 2.542,-0.9585 3.5065,0.0136 0.665,0.6701 0.8918,1.6597 0.5849,2.5525 -0.0592,0.1722 -0.1127,0.1973 -0.1132,0.3279 -2e-4,0.0545 0.005,0.1091 0.013,0.163 v 0 c 0.2276,1.5823 -0.8705,3.0494 -2.4528,3.277 -1.5822,0.2276 -3.0493,-0.8706 -3.2769,-2.4528 -0.0745,-0.5181 -0.007,-1.0467 0.1949,-1.5295 z m 1.5435,-2.3516 c 0.6553,-0.6503 1.4606,-1.1312 2.3418,-1.4053 v 0 c 1.2043,-0.3746 2.4842,0.298 2.8588,1.5023 0.339,1.0898 -0.1787,2.2625 -1.2124,2.7464 -0.005,0.002 -0.0136,0.005 -0.0162,0.0101 v 0 c -0.6039,1.229 -2.0899,1.7358 -3.3189,1.1319 -1.2291,-0.6039 -1.7358,-2.0899 -1.1319,-3.3189 0.1214,-0.2472 0.2833,-0.4725 0.4788,-0.6665 z m 2.3419,-1.4053 c 0.8275,-0.2574 1.7004,-0.3414 2.5641,-0.3034 v 10e-5 c 1.1871,0.0523 2.1071,1.057 2.0548,2.2442 -0.0469,1.0644 -0.8657,1.9342 -1.9253,2.0452 -0.3574,0.0374 -0.72,0.1095 -1.0473,0.2626 v 0 c -1.1423,0.5347 -2.5017,0.0422 -3.0363,-1.1001 -0.5347,-1.1422 -0.0422,-2.5016 1.1001,-3.0363 0.0939,-0.044 0.1908,-0.0815 0.2899,-0.1123 z m 2.5641,-0.3034 c 0.8986,0.0396 1.7871,0.2306 2.6262,0.5539 v 0 c 1.0273,0.3959 1.5391,1.5495 1.1433,2.5768 -0.3515,0.9122 -1.3127,1.4349 -2.2695,1.2341 -0.45,-0.0944 -0.9129,-0.1232 -1.3705,-0.0753 v 0 c -1.1819,0.1238 -2.2403,-0.7339 -2.3642,-1.9157 -0.1238,-1.1818 0.7339,-2.2403 1.9157,-2.3641 0.1059,-0.0111 0.2125,-0.0143 0.319,-0.01 v -10e-5 z m 2.6262,0.5539 c 0.806,0.3107 1.5731,0.7165 2.2978,1.1856 v 0 c 0.8772,0.568 1.128,1.7395 0.56,2.6168 -0.5559,0.8587 -1.6936,1.1201 -2.5686,0.5902 -0.4376,-0.265 -0.9132,-0.4763 -1.4154,-0.5817 v 0 c -1.0774,-0.2261 -1.7675,-1.2829 -1.5414,-2.3603 0.2261,-1.0774 1.2829,-1.7675 2.3603,-1.5414 0.1047,0.022 0.2075,0.0524 0.3073,0.0908 z m 2.2977,1.1856 c 0.7998,0.5178 1.5495,1.1109 2.2621,1.7424 v 0 c 0.7748,0.6865 0.8464,1.8712 0.1598,2.646 -0.6863,0.7746 -1.8705,0.8463 -2.6454,0.1603 -0.5574,-0.4935 -1.1474,-0.9556 -1.7849,-1.3417 v 0 c -0.894,-0.5413 -1.1798,-1.7048 -0.6385,-2.5987 0.5413,-0.8939 1.7048,-1.1798 2.5987,-0.6385 0.0163,0.01 0.0323,0.0199 0.0482,0.0302 z m 2.2621,1.7424 c 0.7642,0.6771 1.5157,1.3684 2.2579,2.0695 v 0 c 0.7959,0.7517 0.8317,2.0062 0.08,2.8021 -0.7517,0.7959 -2.0062,0.8317 -2.8021,0.08 -0.0653,-0.0617 -0.1263,-0.1277 -0.1826,-0.1976 -0.5605,-0.6958 -1.1694,-1.3551 -1.8388,-1.9477 v 0 c -0.7751,-0.6862 -0.8471,-1.8709 -0.1609,-2.6459 0.6862,-0.7751 1.8709,-0.8472 2.6459,-0.1609 2e-4,10e-5 4e-4,3e-4 6e-4,5e-4 z m 2.2579,2.0695 c 0.9032,0.853 1.733,1.7819 2.5076,2.7524 v 0 c 0.7405,0.9279 0.5886,2.2804 -0.3392,3.0209 -0.9279,0.7405 -2.2804,0.5886 -3.0209,-0.3392 -0.0286,-0.0359 -0.0561,-0.0726 -0.0823,-0.1102 -0.6286,-0.9001 -1.281,-1.7843 -1.9699,-2.6393 v 0 c -0.6867,-0.8525 -0.5524,-2.1004 0.3001,-2.7872 0.7718,-0.6217 1.8841,-0.5779 2.6046,0.1026 z m 2.5076,2.7524 c 0.8095,1.0144 1.566,2.0711 2.2616,3.1668 v 0 c 0.6737,1.0611 0.3597,2.4674 -0.7015,3.1411 -1.0611,0.6737 -2.4674,0.3597 -3.1411,-0.7015 -0.0302,-0.0475 -0.0586,-0.0961 -0.0852,-0.1457 -0.5338,-0.9973 -1.1286,-1.9618 -1.7762,-2.8892 v 0 c -0.6797,-0.9733 -0.4416,-2.3133 0.5317,-2.993 0.9295,-0.6491 2.2034,-0.4646 2.9107,0.4215 z m 2.2616,3.1668 c 0.6934,1.0921 1.348,2.2088 1.9685,3.3439 v 0 c 0.6561,1.2003 0.215,2.7053 -0.9854,3.3614 -1.2003,0.6562 -2.7052,0.215 -3.3614,-0.9853 -0.0552,-0.1009 -0.1032,-0.2056 -0.1439,-0.3132 -0.4024,-1.0658 -0.8679,-2.1084 -1.4056,-3.1129 v -10e-5 c -0.5932,-1.1081 -0.1757,-2.4873 0.9325,-3.0805 1.0504,-0.5623 2.3567,-0.2192 2.9953,0.7867 z m 1.9685,3.3439 c 0.6808,1.2455 1.2765,2.5369 1.7928,3.8589 v 0 c 0.5334,1.3658 -0.1414,2.9054 -1.5072,3.4387 -1.3658,0.5334 -2.9054,-0.1414 -3.4388,-1.5072 -0.0141,-0.0361 -0.0274,-0.0726 -0.0399,-0.1094 -0.4133,-1.2128 -0.845,-2.4194 -1.2976,-3.6181 v 0 c -0.4831,-1.2798 0.1626,-2.7089 1.4424,-3.1921 1.1555,-0.4363 2.4559,0.0454 3.0483,1.1292 z m 1.7928,3.8588 c 0.523,1.3391 0.9728,2.7067 1.3471,4.0947 v 0 c 0.3944,1.4625 -0.4715,2.9678 -1.9339,3.3622 -1.4625,0.3944 -2.9678,-0.4714 -3.3622,-1.9339 -0.0104,-0.0383 -0.0198,-0.0768 -0.0285,-0.1155 -0.2711,-1.2121 -0.6078,-2.4096 -1.0084,-3.5853 v 0 c -0.473,-1.3878 0.2687,-2.8963 1.6565,-3.3693 1.345,-0.4584 2.8125,0.2235 3.3294,1.5471 z m 1.3471,4.0947 c 0.3753,1.3916 0.6665,2.8061 0.8659,4.2336 v 0 c 0.2129,1.5241 -0.85,2.9321 -2.374,3.1451 -1.5241,0.2129 -2.9322,-0.85 -3.1451,-2.3741 0,0 0,0 0,0 -0.1731,-1.2391 -0.3983,-2.4708 -0.6714,-3.6918 v 0 c -0.3306,-1.4782 0.5997,-2.9445 2.0779,-3.2752 1.433,-0.3205 2.8643,0.5446 3.2467,1.9624 z m 0.8659,4.2336 c 0.1767,1.2649 0.3059,2.5386 0.3413,3.8158 v 0 c 0.0424,1.5319 -1.165,2.8081 -2.6968,2.8505 -1.5157,0.042 -2.7845,-1.1405 -2.8491,-2.6554 -0.0462,-1.0844 -0.1644,-2.1653 -0.3145,-3.2399 v 0 c -0.2129,-1.524 0.85,-2.9321 2.3741,-3.145 1.524,-0.2129 2.9321,0.85 3.145,2.374 z m 0.3413,3.8158 c 0.0349,1.2597 -0.0952,2.5901 -0.7027,3.7168 v 0 c -0.6701,1.243 -2.221,1.7074 -3.464,1.0373 -0.8538,-0.4603 -1.3736,-1.3641 -1.3422,-2.3335 0.024,-0.7412 -0.005,-1.485 -0.037,-2.2255 v 0 c -0.0653,-1.531 1.1229,-2.8251 2.654,-2.8904 1.531,-0.0653 2.8251,1.1229 2.8904,2.6539 6e-4,0.0138 10e-4,0.0276 10e-4,0.0414 z m -6.4633,2.0333 c 0.3912,-0.1376 0.7776,-0.2911 1.1424,-0.4894 l -0.002,-8e-4 c 0.5303,-1.3088 2.0212,-1.9398 3.33,-1.4094 1.3088,0.5303 1.9398,2.0213 1.4094,3.33 -0.035,0.0865 -0.0748,0.171 -0.1191,0.2532 -0.4826,0.895 -1.4136,1.4702 -2.4244,1.5258 -0.4848,0.0267 -0.9671,-0.0635 -1.4233,-0.2241 -0.7657,-0.2695 -1.4693,-0.7066 -2.1418,-1.154 v 0 c -0.4742,-0.3155 -0.6028,-0.9556 -0.2873,-1.4298 0.1239,-0.1863 0.3051,-0.3272 0.5162,-0.4015 z"
       style="fill:#000000;fill-opacity:1;fill-rule:nonzero;stroke:none"
       id="path1030" /><path
       inkscape:connector-curvature="0"
       d="m 352.6155,573.8567 c 0.0126,-0.6979 0.0599,-1.396 0.0984,-2.0927 v 0 c 0.0334,-0.6061 0.5518,-1.0702 1.1579,-1.0368 0.4069,0.0225 0.7681,0.2683 0.9382,0.6388 0.1274,0.2776 0.26,0.5534 0.4068,0.8213 0.0489,0.0894 0.0995,0.1779 0.1535,0.2643 0.0724,0.1158 0.1399,0.1733 0.2381,0.2818 v 0 c 0.6374,0.7037 0.5837,1.7908 -0.12,2.4282 -0.7036,0.6374 -1.7908,0.5837 -2.4282,-0.12 -0.2935,-0.324 -0.4525,-0.7478 -0.4447,-1.1849 z m -0.0102,0.7869 c 0.002,-0.2624 0.005,-0.5246 0.0102,-0.7869 v 0 c 0.0171,-0.9493 0.8004,-1.705 1.7497,-1.688 0.3583,0.007 0.7057,0.1247 0.9935,0.3383 0.6816,0.5057 1.1338,1.3029 1.1281,2.1621 v 0 c -0.007,1.0719 -0.8816,1.9351 -1.9535,1.928 -1.0719,-0.007 -1.9351,-0.8817 -1.928,-1.9535 z m 0.5026,-1.2904 h -10e-5 c 0.7198,-0.7943 1.9471,-0.8548 2.7414,-0.1351 0.4094,0.3709 0.6413,0.8987 0.6376,1.451 -0.004,0.639 -0.277,1.2512 -0.7405,1.6894 -0.3245,0.3068 -0.7258,0.5173 -1.1486,0.6536 v 0 c -1.0416,0.3356 -2.1581,-0.2367 -2.4937,-1.2783 -0.3006,-0.9331 0.1262,-1.9458 1.0041,-2.3821 l -2e-4,10e-4 z m -0.1438,-0.1872 c 0.2274,0.0281 0.4653,0.0456 0.6927,0.007 v 0 c 1.0787,-0.184 2.1024,0.5413 2.2865,1.62 0.1657,0.9714 -0.4076,1.917 -1.3456,2.2193 -0.5184,0.167 -1.0541,0.2771 -1.5928,0.3544 v 0 c -1.1584,0.166 -2.2321,-0.6384 -2.3982,-1.7968 -0.1661,-1.1585 0.6384,-2.2322 1.7968,-2.3983 0.1858,-0.0266 0.3743,-0.0285 0.5606,-0.005 z m -1.2991,-0.2944 c 0.4248,0.1269 0.8582,0.2399 1.299,0.2944 v 0 c 1.1614,0.1434 1.9867,1.2013 1.8432,2.3627 -0.1172,0.9491 -0.8556,1.702 -1.8023,1.8378 -0.7909,0.1134 -1.599,0.0599 -2.3833,-0.0775 v 0 c -1.2367,-0.2167 -2.0635,-1.3949 -1.8468,-2.6316 0.2167,-1.2367 1.3949,-2.0636 2.6316,-1.8469 0.0873,0.0153 0.1737,0.0357 0.2586,0.0611 z m -2.1146,-0.7257 c 0.6979,0.261 1.4006,0.5123 2.1146,0.7257 v 0 c 1.2029,0.3595 1.8867,1.6262 1.5271,2.8291 -0.3301,1.1047 -1.4348,1.7873 -2.5705,1.5883 -0.8851,-0.1551 -1.7545,-0.3959 -2.611,-0.6651 v 0 c -1.2478,-0.3923 -1.9414,-1.7219 -1.5492,-2.9698 0.3923,-1.2479 1.7219,-1.9415 2.9698,-1.5492 0.0401,0.0126 0.0799,0.0263 0.1192,0.041 z m -2.6954,-1.1784 c 0.8809,0.4307 1.7767,0.8349 2.6955,1.1784 v 0 c 1.2252,0.4582 1.847,1.8228 1.3889,3.0481 -0.441,1.1793 -1.7277,1.8075 -2.9288,1.4299 -1.0384,-0.3265 -2.0687,-0.6778 -3.0945,-1.0416 v 0 c -1.3049,-0.4628 -1.9876,-1.8957 -1.5248,-3.2006 0.4627,-1.3048 1.8957,-1.9875 3.2006,-1.5248 0.0897,0.0319 0.1776,0.0688 0.2631,0.1106 z m -3.1938,-1.5772 c 1.0626,0.5298 2.1271,1.0557 3.1938,1.5772 v 0 c 1.2438,0.6081 1.7592,2.1094 1.1511,3.3532 -0.5597,1.1447 -1.8891,1.6875 -3.09,1.2616 -1.1965,-0.4243 -2.3736,-0.9029 -3.5284,-1.4301 v 0 c -1.3257,-0.6053 -1.9098,-2.1707 -1.3045,-3.4964 0.6053,-1.3257 2.1706,-1.9098 3.4964,-1.3045 0.0274,0.0125 0.0546,0.0255 0.0816,0.039 z m -3.168,-1.7764 c 1.0302,0.6363 2.0842,1.2359 3.168,1.7764 v 0 c 1.3042,0.6503 1.8343,2.2348 1.1839,3.539 -0.6346,1.2727 -2.1637,1.8135 -3.4574,1.2229 -1.1924,-0.5444 -2.3783,-1.1034 -3.5594,-1.6721 v 0 c -1.3822,-0.6656 -1.9632,-2.3257 -1.2976,-3.7079 0.6656,-1.3823 2.3257,-1.9633 3.708,-1.2977 0.0872,0.042 0.1722,0.0886 0.2545,0.1394 z m -3.0434,-2.069 c 0.9805,0.738 1.9995,1.4242 3.0434,2.069 v 0 c 1.3053,0.8062 1.7099,2.5179 0.9037,3.8231 -0.7472,1.2098 -2.2874,1.66 -3.5686,1.0431 -1.2604,-0.6069 -2.4981,-1.2617 -3.7014,-1.9754 v 0 c -1.4201,-0.8423 -1.8885,-2.6763 -1.0463,-4.0963 0.8423,-1.4201 2.6763,-1.8885 4.0963,-1.0463 0.0943,0.0559 0.1853,0.1169 0.2729,0.1828 z m -2.546,-2.0127 c 0.8285,0.6959 1.6816,1.3621 2.5459,2.0127 v 0 c 1.3192,0.9929 1.5836,2.8672 0.5907,4.1863 -0.9166,1.2178 -2.6026,1.551 -3.9135,0.7735 -1.12,-0.6643 -2.204,-1.397 -3.202,-2.2352 v 0 c -1.3081,-1.0987 -1.4779,-3.0499 -0.3792,-4.3581 1.0988,-1.3081 3.05,-1.4779 4.3581,-0.3792 0,0 0,0 0,0 z m -1.4356,-1.4783 c 0.4113,0.5518 0.9098,1.0367 1.4356,1.4783 v 0 c 1.3082,1.0988 1.478,3.05 0.3792,4.3581 -1.0987,1.3082 -3.0499,1.478 -4.3581,0.3792 -0.8043,-0.6756 -1.5798,-1.3876 -2.3002,-2.1525 v 0 c -1.1989,-1.273 -1.1389,-3.2769 0.1341,-4.4758 1.273,-1.1989 3.2768,-1.1388 4.4758,0.1341 0.0831,0.0883 0.1611,0.1813 0.2336,0.2786 z m -0.3178,-0.4522 c -0.006,-0.0328 -0.013,-0.0664 -0.0244,-0.0979 0.008,0.0228 0.0196,0.0449 0.0304,0.0665 0.086,0.1712 0.1975,0.3303 0.3118,0.4836 v 0 c 1.0451,1.402 0.7557,3.3858 -0.6463,4.4308 -1.2894,0.9612 -3.0946,0.803 -4.1972,-0.3677 -0.6757,-0.7174 -1.3079,-1.496 -1.7554,-2.3788 v 0 c -0.8366,-1.6506 -0.1768,-3.6669 1.4737,-4.5035 1.6506,-0.8367 3.6669,-0.1769 4.5035,1.4737 0.1429,0.2819 0.2452,0.5827 0.3039,0.8933 z m -6.627,-1.8428 v 0 c 0.6015,-1.8236 2.5675,-2.8144 4.3911,-2.213 1.7206,0.5675 2.7171,2.3611 2.29,4.1218 -0.1303,0.5372 -0.0517,0.1558 -0.05,0.0196 4e-4,-0.0254 -4e-4,-0.0659 -0.004,-0.0855 v 0 c 0.3432,1.8184 -0.8526,3.5708 -2.671,3.914 -1.4649,0.2765 -2.9362,-0.448 -3.6102,-1.7777 -0.6225,-1.2282 -0.7798,-2.6631 -0.3458,-3.9792 z m 0,0 c 0.4721,-1.4314 1.6124,-2.4804 2.9234,-3.1555 v 0 c 1.7146,-0.8829 3.8203,-0.2087 4.7032,1.5059 0.8667,1.683 0.2344,3.7502 -1.4255,4.6605 l 2e-4,-0.002 c -1.06,1.6012 -3.2174,2.0399 -4.8186,0.9798 -1.3074,-0.8656 -1.8738,-2.4992 -1.3827,-3.9883 z m 2.9235,-3.1555 c 1,-0.515 2.0723,-0.8806 3.1594,-1.162 v 0 c 1.8651,-0.4827 3.7684,0.6379 4.2511,2.503 0.4811,1.8586 -0.6302,3.7566 -2.4864,4.2468 -0.5897,0.1557 -1.1829,0.3412 -1.7268,0.6213 v 0 c -1.7146,0.8829 -3.8203,0.2087 -4.7032,-1.5059 -0.8829,-1.7146 -0.2087,-3.8203 1.5059,-4.7032 0,0 0,0 0,0 z m 3.1594,-1.162 c 1.2163,-0.3148 2.4495,-0.5622 3.6862,-0.7815 v 10e-5 c 1.9235,-0.341 3.7592,0.9419 4.1001,2.8654 0.341,1.9234 -0.9419,3.7591 -2.8654,4.1001 -0.0603,0.0107 -0.1209,0.0198 -0.1817,0.0274 -0.9992,0.1239 -2,0.2809 -2.9745,0.5383 v 0 c -1.8627,0.4918 -3.7715,-0.6194 -4.2634,-2.4821 -0.4919,-1.8627 0.6194,-3.7715 2.4821,-4.2634 0.005,-10e-4 0.0111,-0.003 0.0166,-0.004 z m 3.6862,-0.7815 c 1.3615,-0.2413 2.7214,-0.4911 4.08,-0.7478 v 0 c 1.9882,-0.3755 3.9043,0.9317 4.2799,2.9199 0.3755,1.9881 -0.9317,3.9043 -2.9199,4.2798 -0.0818,0.0155 -0.164,0.0281 -0.2466,0.038 -1.3806,0.1644 -2.7608,0.3319 -4.1405,0.5031 v 0 c -1.9386,0.2405 -3.7051,-1.1361 -3.9457,-3.0747 -0.2317,-1.8677 1.0397,-3.5898 2.8928,-3.9182 z m 4.08,-0.7478 c 1.375,-0.2597 2.7443,-0.549 4.1069,-0.8672 v 0 c 2.0381,-0.4759 4.0762,0.7904 4.5522,2.8286 0.476,2.0382 -0.7904,4.0763 -2.8286,4.5522 -0.0587,0.0138 -0.1177,0.0261 -0.177,0.0369 -1.5057,0.2767 -3.02,0.5061 -4.5401,0.6872 v 0 c -2.0091,0.2393 -3.8319,-1.1954 -4.0712,-3.2045 -0.2278,-1.913 1.0648,-3.6756 2.9578,-4.0332 z m 4.1068,-0.8672 c 1.1843,-0.2765 2.3615,-0.5888 3.5175,-0.9672 v 0 c 2.0165,-0.6601 4.1863,0.4394 4.8464,2.4559 0.6601,2.0165 -0.4394,4.1862 -2.4558,4.8464 -1.4248,0.4664 -2.8877,0.8119 -4.3614,1.0827 v 0 c -2.0586,0.3781 -4.0339,-0.984 -4.4121,-3.0426 -0.3655,-1.9894 0.8957,-3.9152 2.8654,-4.3752 z m 3.5175,-0.9672 c 1.0916,-0.3573 2.1951,-0.687 3.3162,-0.9391 v 0 c 1.8705,-0.4208 3.728,0.7545 4.1487,2.625 0.2618,1.1636 -0.0921,2.3801 -0.9373,3.2217 -1.142,1.1373 -2.6169,1.8971 -4.1371,2.3947 v 0 c -2.0165,0.6601 -4.1863,-0.4394 -4.8464,-2.4559 -0.6601,-2.0165 0.4394,-4.1863 2.4559,-4.8464 0,0 0,0 0,0 z m 3.3162,-0.9391 c 0.6164,-0.1387 1.2327,-0.2853 1.8369,-0.4709 v 0 c 1.4143,-0.4345 2.9131,0.3599 3.3475,1.7742 0.1724,0.5612 0.1557,1.1633 -0.0475,1.714 -0.3988,1.0809 -1.1153,2.0226 -1.9255,2.8294 v 0 c -1.3585,1.3529 -3.5565,1.3482 -4.9094,-0.0103 -1.3529,-1.3586 -1.3482,-3.5566 0.0103,-4.9094 0.4639,-0.462 1.049,-0.7834 1.6877,-0.927 z m 1.8369,-0.4709 c 0.099,-0.0304 0.2018,-0.0627 0.2733,-0.1399 v 0 c 0.7491,-0.8077 2.0111,-0.8553 2.8188,-0.1062 0.4038,0.3745 0.6348,0.8993 0.6383,1.45 0.005,0.7809 -0.1609,1.5538 -0.4304,2.2843 v 0 c -0.5122,1.3881 -2.0526,2.0982 -3.4407,1.5861 -1.3881,-0.5122 -2.0982,-2.0527 -1.5861,-3.4408 0.2893,-0.784 0.9279,-1.3881 1.7268,-1.6335 z m 0.2379,-0.1006 c 0.0355,-0.0404 0.0584,-0.0882 0.0612,-0.1423 v 0 c 0.0478,-0.9154 0.8285,-1.6188 1.7439,-1.571 0.7804,0.0406 1.4267,0.6202 1.5519,1.3915 0.0872,0.5376 0.1321,1.0817 0.1355,1.6263 v 0 c 0.007,1.1015 -0.8805,2.0001 -1.9821,2.007 -1.1015,0.007 -2.0001,-0.8805 -2.007,-1.982 -0.003,-0.4891 0.1737,-0.9622 0.4966,-1.3295 z m 2.6237,-2.2871 c 0.349,0.6098 0.6203,1.2692 0.7333,1.9654 v 0 c 0.1468,0.9048 -0.4677,1.7573 -1.3725,1.9041 -0.9048,0.1468 -1.7573,-0.4677 -1.9041,-1.3725 -0.008,-0.0477 -0.0134,-0.0957 -0.0169,-0.1439 -0.025,-0.3395 -0.017,-0.2125 10e-4,-0.1544 -0.003,-0.009 -0.007,-0.0167 -0.0109,-0.0247 -0.0318,-0.0623 -0.0788,-0.1173 -0.1267,-0.1678 v 0 c -0.6436,-0.6778 -0.6159,-1.7492 0.062,-2.3928 0.6778,-0.6437 1.7492,-0.616 2.3928,0.0619 0.0933,0.0982 0.1744,0.2072 0.2416,0.3247 z m -1.6856,-1.9841 c 0.6548,0.5722 1.252,1.2265 1.6856,1.9841 v 0 c 0.4644,0.8113 0.1831,1.8454 -0.6282,2.3098 -0.677,0.3874 -1.5311,0.2621 -2.0682,-0.3035 -0.3512,-0.37 -0.7807,-0.6639 -1.2167,-0.9244 v 0 c -0.9021,-0.5388 -1.1966,-1.7069 -0.6577,-2.6089 0.5388,-0.9021 1.7069,-1.1966 2.6089,-0.6578 0.098,0.0585 0.1904,0.1257 0.2763,0.2007 z m -2.2308,-1.7005 c 0.7744,0.5244 1.5262,1.0849 2.2308,1.7005 v 0 c 0.7912,0.6914 0.8722,1.8933 0.1808,2.6846 -0.6051,0.6924 -1.6189,0.853 -2.4083,0.3814 -0.5717,-0.3415 -1.2053,-0.5739 -1.8461,-0.7476 v 0 c -1.1947,-0.3237 -1.9007,-1.5547 -1.5769,-2.7493 0.3238,-1.1947 1.5547,-1.9007 2.7494,-1.5769 0.2389,0.0647 0.4654,0.1685 0.6703,0.3073 z m -2.9088,-1.762 c 0.9927,0.5475 1.9698,1.1262 2.9088,1.762 v 0 c 1.0249,0.694 1.2932,2.0874 0.5992,3.1123 -0.5368,0.7928 -1.5179,1.1571 -2.442,0.9066 -0.9383,-0.2543 -1.8947,-0.4406 -2.854,-0.5955 v 0 c -1.5177,-0.2451 -2.5493,-1.674 -2.3043,-3.1917 0.245,-1.5176 1.674,-2.5493 3.1917,-2.3043 0.3158,0.051 0.6205,0.1561 0.9006,0.3106 z m -3.4015,-1.7432 c 1.1503,0.548 2.2857,1.1278 3.4015,1.7432 v 0 c 1.3461,0.7424 1.8355,2.4356 1.0931,3.7817 -0.5677,1.0293 -1.7207,1.591 -2.8811,1.4037 -1.179,-0.1904 -2.36,-0.3691 -3.5424,-0.5378 v 10e-5 c -1.846,-0.2634 -3.1291,-1.9734 -2.8658,-3.8194 0.2633,-1.8461 1.9733,-3.1292 3.8194,-2.8659 0.3381,0.0483 0.6669,0.1475 0.9753,0.2944 z m -3.8099,-1.6811 c 1.2841,0.5273 2.5565,1.0841 3.8098,1.6811 v -10e-5 c 1.6835,0.802 2.3982,2.8168 1.5963,4.5003 -0.6351,1.3334 -2.063,2.0992 -3.5251,1.8907 -1.2618,-0.18 -2.5275,-0.3313 -3.7953,-0.4627 v 0 c -2.1774,-0.2257 -3.7597,-2.1738 -3.534,-4.3513 0.2257,-2.1774 2.1738,-3.7597 4.3513,-3.534 0.377,0.0391 0.7464,0.132 1.097,0.276 z m -4.1744,-1.5975 c 1.4037,0.4998 2.7961,1.0315 4.1744,1.5975 v 0 c 2.0251,0.8316 2.9926,3.1473 2.161,5.1724 -0.6677,1.6261 -2.3268,2.6181 -4.0753,2.4369 -1.3746,-0.1424 -2.7513,-0.2643 -4.1294,-0.3675 v 0 c -2.5104,-0.1879 -4.393,-2.3753 -4.2051,-4.8856 0.1879,-2.5104 2.3753,-4.3931 4.8856,-4.2051 0.4058,0.0303 0.8056,0.1149 1.1888,0.2514 z m -4.7668,-1.3038 c 1.6201,0.3079 3.2136,0.7507 4.7668,1.3038 v 0 c 2.3715,0.8444 3.6094,3.4515 2.765,5.823 -0.6889,1.9346 -2.5864,3.1697 -4.6343,3.0163 -1.5665,-0.1172 -3.1278,-0.3101 -4.6735,-0.5911 v 0 c -2.6396,-0.48 -4.3904,-3.0089 -3.9105,-5.6486 0.4799,-2.6396 3.0089,-4.3904 5.6485,-3.9105 0.0127,0.002 0.0254,0.005 0.038,0.007 z m -3.4641,-0.6164 c 1.1581,0.1852 2.312,0.3974 3.4641,0.6164 v 0 c 2.6358,0.5009 4.3664,3.0437 3.8655,5.6794 -0.4981,2.621 -3.0167,4.3498 -5.6415,3.8726 -1.0731,-0.1952 -2.1472,-0.3862 -3.2242,-0.5584 v 0 c -2.6538,-0.4242 -4.4612,-2.9193 -4.037,-5.573 0.4242,-2.6538 2.9194,-4.4612 5.5731,-4.037 z m -3.3232,-0.1628 c 1.1056,-0.1265 2.2293,-0.012 3.3232,0.1628 v 0 c 2.6537,0.4242 4.4611,2.9194 4.0369,5.5731 -0.4242,2.6537 -2.9193,4.4611 -5.573,4.0369 0,0 0,0 0,0 -0.7993,-0.1277 -1.6006,-0.2626 -2.3868,-0.457 v 0 c -2.5426,-0.629 -4.094,-3.2001 -3.465,-5.7427 0.4757,-1.923 2.0965,-3.3478 4.0647,-3.5731 z m -4.2224,4.0223 c 0.1906,-1.2489 0.888,-2.3786 1.9023,-3.1189 0.6796,-0.4961 1.4852,-0.8078 2.3201,-0.9034 v 0 c 2.6023,-0.2977 4.9532,1.5705 5.251,4.1727 0.2978,2.6023 -1.5704,4.9533 -4.1727,5.2511 -0.5613,0.0642 -1.1295,0.0276 -1.678,-0.108 -0.9156,-0.2265 -1.7637,-0.7045 -2.412,-1.3953 v 0 c -0.9805,-1.0447 -1.4268,-2.4819 -1.2107,-3.8982 z"
       style="fill:#000000;fill-opacity:1;fill-rule:nonzero;stroke:none"
       id="path1032" /><path
       inkscape:connector-curvature="0"
       d="m 148.4565,575.4287 v 0 c 0.4051,-0.452 1.0999,-0.4899 1.5519,-0.0848 0.1144,0.1025 0.206,0.2278 0.2689,0.3679 0.0559,0.1243 0.1112,0.2431 0.1883,0.3546 v 0 c 0.5424,0.784 0.3466,1.8592 -0.4374,2.4015 -0.7839,0.5424 -1.8591,0.3466 -2.4015,-0.4374 -0.5423,-0.7839 -0.3465,-1.8591 0.4375,-2.4015 0.1215,-0.084 0.2532,-0.1521 0.3921,-0.2026 l 2e-4,0.002 z m 2.3028,0.9073 c 0.124,0.3225 0.1996,0.6611 0.1936,1.0086 v 0 c -0.004,0.2041 -0.0337,0.4069 -0.0899,0.6032 -0.3115,1.0884 -1.3686,1.7911 -2.4792,1.7669 v 0 c -1.3732,-0.03 -2.4621,-1.1674 -2.4322,-2.5406 0.0299,-1.3731 1.1674,-2.4621 2.5405,-2.4321 1.0092,0.022 1.905,0.6518 2.2672,1.594 z m -0.4199,-0.9572 c 0.1476,0.3152 0.2949,0.632 0.4198,0.957 v 0 c 0.4929,1.2821 -0.1468,2.7209 -1.4288,3.2138 -0.3018,0.116 -0.6234,0.1721 -0.9466,0.1651 -1.2887,-0.0281 -2.3328,-0.9317 -2.8689,-2.0503 v 0 c -0.637,-1.3295 -0.0757,-2.9236 1.2537,-3.5606 1.3295,-0.6371 2.9236,-0.0758 3.5607,1.2537 0.003,0.007 0.007,0.0142 0.0101,0.0213 z m -0.5173,-1.2765 c 0.1601,0.4297 0.3226,0.8609 0.5173,1.2765 v 0 c 0.6252,1.335 0.0499,2.9241 -1.2851,3.5494 -1.3267,0.6214 -2.9063,0.0573 -3.5394,-1.2638 -0.2643,-0.5516 -0.4867,-1.1232 -0.7001,-1.696 v 0 c -0.5153,-1.3827 0.1879,-2.9214 1.5706,-3.4367 1.3827,-0.5153 2.9214,0.1879 3.4367,1.5706 z m -0.8206,-2.2699 c 0.2684,0.7585 0.5396,1.516 0.8206,2.27 v 0 c 0.5153,1.3827 -0.1879,2.9213 -1.5707,3.4366 -1.3827,0.5153 -2.9213,-0.1879 -3.4366,-1.5706 0,0 0,0 0,-10e-5 -0.3251,-0.8722 -0.5683,-1.7743 -0.7805,-2.6798 v 0 c -0.3267,-1.3938 0.5384,-2.7885 1.9322,-3.1152 1.2867,-0.3015 2.5942,0.4132 3.035,1.6591 z m -0.7423,-2.8772 c 0.1854,0.9724 0.4118,1.9429 0.7423,2.8772 v 0 c 0.4775,1.3495 -0.2294,2.8307 -1.5789,3.3082 -1.3496,0.4775 -2.8307,-0.2294 -3.3083,-1.579 -0.0316,-0.0895 -0.0584,-0.1807 -0.08,-0.2731 -0.2537,-1.0826 -0.5154,-2.1633 -0.7803,-3.2432 v 0 c -0.3371,-1.3743 0.5037,-2.7616 1.878,-3.0987 1.3743,-0.3372 2.7617,0.5036 3.0988,1.8779 0.0106,0.0433 0.0201,0.0869 0.0284,0.1307 z m -0.4364,-3.6036 c 0.0706,1.2086 0.2097,2.4141 0.4364,3.6036 v 0 c 0.265,1.3901 -0.6471,2.7316 -2.0371,2.9966 -1.339,0.2552 -2.6433,-0.5826 -2.9681,-1.9065 -0.3176,-1.2948 -0.6292,-2.5912 -0.9358,-3.8887 v 0 c -0.3547,-1.5007 0.5743,-3.0048 2.075,-3.3595 1.5007,-0.3547 3.0048,0.5743 3.3595,2.075 0.0372,0.1575 0.0607,0.318 0.0701,0.4795 z m -0.2807,-4.0859 c 0.1083,1.3609 0.2012,2.7231 0.2807,4.0859 v 0 c 0.0899,1.5395 -1.0852,2.8603 -2.6246,2.9502 -1.3535,0.079 -2.5681,-0.8257 -2.88,-2.1451 -0.3434,-1.453 -0.5834,-2.9311 -0.7018,-4.4196 v 0 c -0.1301,-1.6363 1.0909,-3.0684 2.7272,-3.1985 1.6363,-0.1302 3.0684,1.0908 3.1986,2.7271 z m -6.0044,-3.4924 v 0 c 0.081,-1.5842 1.4309,-2.8029 3.0152,-2.7219 1.4478,0.074 2.6135,1.2154 2.7181,2.6613 0.0858,1.1847 0.1769,2.369 0.2711,3.553 v 0 c 0.1302,1.6364 -1.0908,3.0684 -2.7271,3.1986 -1.6363,0.1302 -3.0684,-1.0908 -3.1986,-2.7271 -0.1048,-1.3178 -0.1462,-2.6431 -0.0787,-3.9639 z m 0,0 c 0.0659,-1.2892 0.3081,-2.6244 0.9798,-3.7456 v 0 c 0.7142,-1.1921 2.2596,-1.5796 3.4517,-0.8654 0.783,0.4691 1.2506,1.3254 1.2219,2.2377 -0.0243,0.7706 0.0244,1.5445 0.0799,2.3127 v 0 c 0.1145,1.5822 -1.0753,2.9576 -2.6575,3.0721 -1.5822,0.1144 -2.9576,-1.0754 -3.0721,-2.6576 -0.008,-0.1178 -0.01,-0.236 -0.004,-0.3539 z m 0.9798,-3.7456 c 0.4495,-0.7503 1.0114,-1.4314 1.6797,-1.997 v 0 c 0.9188,-0.7777 2.2942,-0.6633 3.0719,0.2555 0.6823,0.8062 0.6885,1.9855 0.0148,2.7988 -0.0719,0.0867 -0.0894,0.2061 -0.0928,0.3151 v 0 c -0.0437,1.389 -1.2052,2.4795 -2.5942,2.4358 -1.3891,-0.0437 -2.4796,-1.2052 -2.4359,-2.5942 0.0135,-0.4285 0.1362,-0.8463 0.3565,-1.214 z m 1.6797,-1.997 c 0.7214,-0.6107 1.5795,-1.0339 2.4859,-1.2919 v 0 c 1.1419,-0.325 2.3311,0.3372 2.6561,1.4791 0.3251,1.1419 -0.3371,2.3311 -1.479,2.6561 -0.0664,0.0189 -0.1336,0.0346 -0.2014,0.047 -0.1251,0.0229 -0.2885,0.0596 -0.3749,0.164 v 0 c -0.768,0.927 -2.1421,1.0559 -3.0691,0.2879 -0.927,-0.7679 -1.0559,-2.142 -0.288,-3.069 0.0819,-0.0989 0.1724,-0.1903 0.2704,-0.2732 z m 2.4859,-1.2919 c 0.9822,-0.2796 2.0131,-0.3555 3.0302,-0.3089 v 0 c 1.2504,0.0573 2.2176,1.1175 2.1603,2.3679 -0.0573,1.2504 -1.1175,2.2176 -2.3679,2.1603 -0.0757,-0.003 -0.1512,-0.0107 -0.2262,-0.0218 -0.5333,-0.0784 -1.0874,-0.113 -1.6207,-0.0153 v 0 c -1.1678,0.2138 -2.2879,-0.5596 -2.5018,-1.7274 -0.1994,-1.0892 0.4611,-2.1517 1.5261,-2.4548 z m 3.0302,-0.3089 c 1.2587,0.0577 2.492,0.3864 3.6618,0.8419 v 0 c 1.3053,0.5081 1.9515,1.9782 1.4434,3.2834 -0.5082,1.3053 -1.9782,1.9515 -3.2835,1.4434 -0.1855,-0.0722 -0.3618,-0.166 -0.5254,-0.2795 -0.5148,-0.357 -1.1008,-0.6901 -1.7301,-0.7828 v 0 c -1.2384,-0.1822 -2.0946,-1.3339 -1.9123,-2.5723 0.1695,-1.1515 1.1835,-1.9874 2.3461,-1.9341 z m 3.6618,0.8419 c 1.396,0.5434 2.6931,1.3201 3.882,2.2273 v 0 c 1.2882,0.983 1.5357,2.8242 0.5527,4.1124 -0.983,1.2882 -2.8242,1.5357 -4.1124,0.5527 -0.149,-0.1137 -0.2868,-0.2415 -0.4115,-0.3815 -0.6817,-0.7656 -1.4324,-1.4782 -2.2763,-2.0636 v 0 c -1.1509,-0.7982 -1.4368,-2.3784 -0.6385,-3.5294 0.6685,-0.9639 1.9109,-1.3435 3.004,-0.9179 z m 3.882,2.2273 c 1.2447,0.9498 2.4182,1.9911 3.5323,3.0906 v 0 c 1.3002,1.2832 1.3139,3.3774 0.0308,4.6776 -1.2832,1.3002 -3.3774,1.3139 -4.6776,0.0308 -0.1231,-0.1215 -0.2365,-0.2524 -0.3391,-0.3916 -0.7937,-1.0768 -1.6279,-2.1245 -2.5176,-3.1238 v 0 c -1.0775,-1.2102 -0.97,-3.0648 0.2403,-4.1424 1.0494,-0.9343 2.6139,-0.9935 3.7309,-0.1412 z m 3.5323,3.0906 c 1.1715,1.1561 2.2653,2.3922 3.2556,3.7072 v 0 c 1.1671,1.5497 0.8569,3.7521 -0.6928,4.9192 -1.5498,1.1672 -3.7522,0.857 -4.9193,-0.6928 -0.017,-0.0225 -0.0337,-0.0452 -0.0501,-0.0682 -0.8513,-1.1889 -1.7116,-2.3716 -2.5793,-3.5486 v 0 c -1.0839,-1.4705 -0.7705,-3.5412 0.6999,-4.6251 1.31,-0.9656 3.1277,-0.8348 4.286,0.3083 z m 3.2556,3.7072 c 0.8771,1.1647 1.7031,2.3702 2.4387,3.6297 v 0 c 0.9856,1.6877 0.4164,3.8548 -1.2712,4.8404 -1.6877,0.9856 -3.8548,0.4165 -4.8404,-1.2712 0,0 0,0 0,0 -0.611,-1.0463 -1.2841,-2.0558 -1.9893,-3.0406 v 0 c -1.1294,-1.5774 -0.7663,-3.7718 0.8111,-4.9012 1.5506,-1.1103 3.7038,-0.7805 4.8511,0.7429 z m 2.4387,3.6298 c 0.6886,1.179 1.2858,2.4126 1.7639,3.692 v 0 c 0.671,1.7958 -0.2409,3.7956 -2.0367,4.4666 -1.6951,0.6334 -3.5923,-0.1417 -4.3591,-1.7807 -0.4486,-0.9589 -0.9459,-1.8947 -1.4797,-2.8088 v 0 c -0.9856,-1.6877 -0.4164,-3.8548 1.2712,-4.8403 1.6877,-0.9856 3.8548,-0.4165 4.8404,1.2712 0,0 0,0 0,0 z m 1.7639,3.692 c 0.4615,1.2353 0.8072,2.5148 1.0118,3.818 v 0 c 0.2771,1.7641 -0.9285,3.4187 -2.6925,3.6957 -1.5039,0.2362 -2.9687,-0.6086 -3.5175,-2.0285 -0.366,-0.9469 -0.7675,-1.8799 -1.1976,-2.7994 v 0 c -0.8124,-1.7364 -0.0632,-3.8027 1.6733,-4.615 1.7365,-0.8123 3.8027,-0.0631 4.615,1.6733 0.0392,0.0839 0.0751,0.1692 0.1075,0.2559 z m 1.0118,3.8179 c 0.1808,1.1512 0.2984,2.3123 0.3485,3.4766 v 0 c 0.0706,1.6411 -1.2026,3.0288 -2.8437,3.0994 -1.511,0.065 -2.8301,-1.0142 -3.0658,-2.5081 -0.1294,-0.8206 -0.3496,-1.6259 -0.649,-2.4006 v 0 c -0.6438,-1.6656 0.1846,-3.5377 1.8502,-4.1815 1.6656,-0.6438 3.5378,0.1845 4.1815,1.8502 0.0829,0.2144 0.1427,0.437 0.1783,0.664 z m 0.3485,3.4766 c 0.0473,1.1008 0.0232,2.2098 -0.1385,3.301 v 0 c -0.2263,1.5266 -1.6472,2.5807 -3.1738,2.3545 -1.366,-0.2025 -2.3793,-1.3725 -2.3846,-2.7534 -0.003,-0.774 -0.0921,-1.5472 -0.2126,-2.3108 v 0 c -0.256,-1.6226 0.8519,-3.1455 2.4745,-3.4015 1.6226,-0.2559 3.1455,0.852 3.4014,2.4746 0.0176,0.1111 0.0288,0.2232 0.0336,0.3356 z m -5.8531,3.7427 c 0.0697,-0.1769 0.1148,-0.2237 0.1346,-0.3881 0.018,-0.15 0.0222,-0.3016 0.0216,-0.4525 v 0 c -0.006,-1.5433 1.2403,-2.7991 2.7835,-2.805 1.5433,-0.006 2.7991,1.2403 2.8051,2.7835 5e-4,0.1407 -0.01,0.2812 -0.0302,0.4204 -0.1963,1.3242 -0.7718,2.6361 -1.8896,3.4326 v 0 c -1.1389,0.8115 -2.72,0.5461 -3.5316,-0.5927 -0.4975,-0.6982 -0.6079,-1.6007 -0.2934,-2.3982 z m -2.5256,-2.4553 c 0.7973,0.2672 1.5996,0.5222 2.412,0.7395 0.4866,0.1302 0.9773,0.2481 1.4763,0.3197 l -0.002,-0.004 c 1.286,-0.5492 2.7738,0.0481 3.3231,1.3342 0.4673,1.0942 0.1097,2.3661 -0.8592,3.0566 -0.9658,0.6881 -2.1896,0.6127 -3.1821,0.0502 -0.4237,-0.2401 -0.8099,-0.5434 -1.1803,-0.8581 -1.082,-0.9196 -2.0692,-1.9544 -3.044,-2.9847 v 0 c -0.3837,-0.4057 -0.366,-1.0456 0.0396,-1.4294 0.2714,-0.2567 0.6621,-0.3429 1.0162,-0.2242 z"
       style="fill:#000000;fill-opacity:1;fill-rule:nonzero;stroke:none"
       id="path1050" /><path
       inkscape:connector-curvature="0"
       d="m 154.459,554.3957 c -0.2668,0.3889 -0.609,0.7243 -1.0077,0.9786 v 0 c -0.6157,0.3926 -1.3414,0.5766 -2.0697,0.5247 -0.6005,-0.0429 -1.1821,-0.2455 -1.6823,-0.5767 v 0 c -1.592,-1.0542 -2.028,-3.1995 -0.9738,-4.7915 1.0542,-1.592 3.1995,-2.028 4.7915,-0.9738 1.5921,1.0542 2.028,3.1994 0.9738,4.7915 -0.0105,0.0158 -0.0211,0.0315 -0.0318,0.0472 z m 0.5818,-4.3714 c 0.3824,1.4541 0.2886,3.1029 -0.5818,4.3714 v 0 c -1.0677,1.5562 -3.1861,1.9686 -4.7597,0.9266 -1.1243,-0.7445 -1.8331,-1.9843 -2.1883,-3.2608 v 0 c -0.5774,-2.0753 0.6369,-4.2257 2.7122,-4.8031 2.0753,-0.5774 4.2257,0.6369 4.8031,2.7122 0.005,0.0178 0.01,0.0358 0.0146,0.0537 z m -0.6319,-2.1478 c 0.2259,0.7112 0.4422,1.4259 0.6319,2.1477 v 0 c 0.5478,2.0833 -0.697,4.2163 -2.7803,4.764 -2.0624,0.5423 -4.1779,-0.6722 -4.7495,-2.7266 -0.1698,-0.6103 -0.3566,-1.2159 -0.5484,-1.8197 v 0 c -0.6532,-2.0562 0.4842,-4.2526 2.5404,-4.9058 2.0563,-0.6532 4.2527,0.4842 4.9059,2.5404 z m -0.8869,-2.5448 c 0.3173,0.8404 0.6149,1.6885 0.8869,2.5448 v 0 c 0.6532,2.0562 -0.4842,4.2526 -2.5404,4.9058 -2.0562,0.6532 -4.2526,-0.4841 -4.9059,-2.5403 0,0 0,0 0,0 -0.2357,-0.742 -0.4877,-1.4786 -0.752,-2.2109 v 0 c -0.7306,-2.0244 0.3182,-4.2578 2.3426,-4.9885 2.0035,-0.7232 4.2164,0.2963 4.9688,2.2891 z m -1.6267,-3.7882 c 0.5715,1.2486 1.1414,2.5029 1.6267,3.7882 v 0 c 0.7602,2.0135 -0.2559,4.262 -2.2694,5.0222 -2.0135,0.7602 -4.262,-0.2558 -5.0222,-2.2694 -0.007,-0.0177 -0.0133,-0.0355 -0.0198,-0.0534 -0.4372,-1.2115 -0.8731,-2.4236 -1.3089,-3.6357 v 0 c -0.7063,-1.9643 0.3135,-4.1293 2.2779,-4.8356 1.8486,-0.6647 3.8982,0.1975 4.7157,1.9837 z m -2.0107,-3.7964 c 0.3602,0.5216 0.6698,1.0776 0.9635,1.6386 0.371,0.7083 0.7145,1.4308 1.0472,2.1578 v 0 c 0.8688,1.8981 0.0343,4.1411 -1.8638,5.0099 -1.8981,0.8687 -4.1411,0.0343 -5.0098,-1.8638 -0.0441,-0.0964 -0.0841,-0.1945 -0.12,-0.2942 -0.2722,-0.7571 -0.5327,-1.5191 -0.7612,-2.2907 -0.1828,-0.6177 -0.3491,-1.2439 -0.4496,-1.8809 v 0 c -0.2944,-1.8661 0.9798,-3.6175 2.8459,-3.9119 1.2991,-0.2049 2.6006,0.353 3.3478,1.4352 z m -6.3074,-0.194 v 0 c 0.1614,-1.5347 1.5364,-2.648 3.0712,-2.4866 0.6106,0.0643 1.1831,0.3279 1.629,0.7501 0.6089,0.5767 1.1316,1.2417 1.6072,1.9305 v 0 c 1.0735,1.5546 0.6835,3.6851 -0.8711,4.7585 -1.5545,1.0735 -3.685,0.6835 -4.7585,-0.8711 -0.2914,-0.422 -0.4842,-0.9041 -0.5641,-1.4107 -0.1388,-0.8801 -0.2072,-1.7821 -0.1137,-2.6707 z m 0,10e-5 c 0.0703,-0.668 0.3074,-1.3224 0.6969,-1.8709 0.2756,-0.3881 0.6545,-0.7798 1.1154,-0.9385 v -10e-5 c 0.0615,-0.0211 0.1247,-0.0369 0.1889,-0.0472 0.434,-0.0691 0.9015,0.058 1.3017,0.218 0.5175,0.2068 0.993,0.5192 1.3972,0.902 v 0 c 1.1205,1.0611 1.1687,2.8296 0.1077,3.9501 -1.0611,1.1206 -2.8296,1.1688 -3.9502,0.1077 -0.6315,-0.5981 -0.9486,-1.4561 -0.8576,-2.3211 z"
       style="fill:#000000;fill-opacity:1;fill-rule:nonzero;stroke:none"
       id="path1052" /></g><g
     transform="matrix(0.81537731,0,0,0.72727278,697.30472,125.14496)"
     id="g1080" /><g
     transform="matrix(1.2878564,0,0,0.72727278,301.695,159.58296)"
     id="g1082" /><g
     transform="matrix(1.5482266,0,0,-0.72727278,480.94499,193.64695)"
     id="g1084" /><g
     transform="matrix(1.20442,0,0,0.72727278,483.65939,165.58869)"
     id="g1086" /><g
     transform="matrix(0.86980811,0,0,0.72727278,295.80713,254.08442)"
     id="g1088" /><g
     transform="matrix(1.1431985,0,0,0.72727278,289.47441,334.65895)"
     id="g1090" /></svg>